<?xml version="1.0" encoding="utf-8"?>
<!-- Generator: Adobe Illustrator 17.0.0, SVG Export Plug-In . SVG Version: 6.00 Build 0)  -->
<!DOCTYPE svg PUBLIC "-//W3C//DTD SVG 1.1//EN" "http://www.w3.org/Graphics/SVG/1.1/DTD/svg11.dtd">
<svg version="1.1" id="Layer_1" xmlns="http://www.w3.org/2000/svg" xmlns:xlink="http://www.w3.org/1999/xlink" x="0px" y="0px"
	 width="233.264px" height="189.667px" viewBox="0 0 233.264 189.667" enable-background="new 0 0 233.264 189.667"
	 xml:space="preserve">
<g display="none">
	<path display="inline" fill="none" stroke="#F9CD24" stroke-linejoin="round" stroke-miterlimit="10" d="M155.245,122.07
		c0,0.69-0.564,1.254-1.254,1.254h-28.848c-0.69,0-1.254-0.564-1.254-1.254V93.222c0-0.69,0.564-1.254,1.254-1.254h28.848
		c0.69,0,1.254,0.564,1.254,1.254V122.07z"/>
	<path display="inline" fill="#F9CD22" d="M146.823,101.386c-0.775-1.278-1.832-2.265-3.142-2.934
		c-1.282-0.655-2.71-0.987-4.246-0.987c-0.935,0-1.822,0.139-2.634,0.412c-0.819,0.275-1.555,0.668-2.184,1.165
		c-1.194,0.939-2.053,2.056-2.552,3.322c-0.477,1.211-0.719,2.359-0.719,3.413v12.351h3.706v-12.277
		c0-0.856,0.209-1.643,0.639-2.405c0.434-0.769,0.987-1.359,1.691-1.803c0.682-0.43,1.402-0.639,2.201-0.639h0.074
		c1.076,0,1.937,0.258,2.632,0.787c0.732,0.558,1.239,1.208,1.551,1.987c0.33,0.826,0.498,1.624,0.498,2.371v11.979h3.706v-12.202
		c0-0.851-0.104-1.664-0.309-2.414C147.53,102.757,147.222,102.042,146.823,101.386z"/>
</g>
<polygon fill="none" points="129.381,188.037 131.16,188.037 96.854,147.657 "/>
<path display="none" opacity="0.18" fill="#CEA063" d="M173.418,74.793l-3,72.831l-73.564,0.033l34.306,40.38h25.067
	c39.091-7.319,69.729-38.618,76.063-78.047l-46.92-53.118L173.418,74.793z"/>
<text transform="matrix(0.9958 -0.0918 0.0918 0.9958 21.4116 105.0245)"><tspan x="0" y="0" font-family="'Lato-Bold'" font-size="5.5569">you are the </tspan><tspan x="-2.065" y="10.912" font-family="'Lato-Black'" font-size="9.0931">winner!</tspan></text>
<path fill="#DCDCDD" d="M192.398,172.958c-2.911-5.064-7.759-10.332-15.059-15.881c-0.849,7.337-2.013,16.379-3.261,25.732
	C180.573,180.192,186.709,176.879,192.398,172.958z"/>
<path fill="#DCDCDD" d="M85.869,164.103c-0.16,2.814-0.764,5.591-1.879,8.211c0.121,0.085,0.239,0.173,0.36,0.258
	c0.057,0.04,0.115,0.079,0.172,0.119c0.552,0.385,1.107,0.764,1.668,1.137c0.031,0.021,0.063,0.041,0.094,0.062
	c0.371,0.247,0.75,0.482,1.125,0.724c0.249-4.862,0.504-9.666,0.757-14.206L85.869,164.103z"/>
<path fill="#FDCD9D" d="M71.232,154.934l0.285,3.337l1.729-1.792l-0.469-0.11C72.26,156.018,71.743,155.524,71.232,154.934z"/>
<path fill="#FDCD9D" d="M83.847,151.682c0.365,2.222,0.949,4.599,1.817,7.133C85.344,156.382,84.725,153.979,83.847,151.682z"/>
<path fill="#FDCD9D" d="M67.575,172.154l-21.819,1.868c1.403,3.081-0.24,7.467-2.651,10.117c2.909-1.667,5.327-4.136,5.278-7.76
	c9.414,1.971,20.885,0.86,23.568-3.292l-1.321-2.324C69.82,171.529,68.771,172.052,67.575,172.154z"/>
<path opacity="0.1" fill="#010101" d="M67.575,172.154l-21.819,1.868c1.403,3.081-0.24,7.467-2.651,10.117
	c2.909-1.667,5.327-4.136,5.278-7.76c9.414,1.971,20.885,0.86,23.568-3.292l-1.321-2.324
	C69.82,171.529,68.771,172.052,67.575,172.154z"/>
<path fill="#FDCD9D" d="M35.313,186.961c0.496-0.106,1.067-0.24,1.681-0.404c-0.645,0.03-1.408,0.059-2.248,0.081
	C34.935,186.747,35.12,186.856,35.313,186.961z"/>
<path opacity="0.1" fill="#010101" d="M35.313,186.961c0.496-0.106,1.067-0.24,1.681-0.404c-0.645,0.03-1.408,0.059-2.248,0.081
	C34.935,186.747,35.12,186.856,35.313,186.961z"/>
<path fill="#FDCD9D" d="M71.897,168.879c-0.276,0.72-0.711,1.359-1.266,1.884l1.321,2.324
	C72.703,171.923,72.768,170.521,71.897,168.879z"/>
<path opacity="0.1" fill="#010101" d="M71.897,168.879c-0.276,0.72-0.711,1.359-1.266,1.884l1.321,2.324
	C72.703,171.923,72.768,170.521,71.897,168.879z"/>
<path fill="#424242" d="M65.171,84.097c-0.242-2.811-2.721-4.899-5.532-4.657l-14.756,1.263l-29.395,2.516
	c-2.812,0.24-4.894,2.716-4.657,5.531l3.79,44.259c1.235-0.303,2.497-0.57,3.751-0.78l-3.12-36.448
	c-0.104-1.221,0.801-2.293,2.022-2.397l26.64-2.28l15.697-1.343c1.22-0.105,2.295,0.799,2.4,2.018l3.249,37.963
	c0.575-2.353,1.646-4.314,3.339-5.588L65.171,84.097z M41.057,86.162l-6.113,0.523c-0.656,0.056-1.235-0.433-1.291-1.087
	c-0.054-0.656,0.432-1.234,1.089-1.287l6.112-0.526c0.659-0.054,1.236,0.431,1.292,1.087C42.204,85.53,41.714,86.106,41.057,86.162z
	"/>
<path fill="#424242" d="M72.232,166.624l-0.386-4.512l-0.329-3.841l-0.285-3.337c-1.736-2.007-3.381-5.26-4.583-8.963l0.719,8.396
	c0.067,0.792-0.294,1.517-0.886,1.961c-0.32,0.24-0.706,0.401-1.134,0.439l-26.793,2.293c-0.171,1.375-0.534,2.727-1.046,3.926
	c-0.837,1.958-2.065,3.504-3.488,4.054l-6.587,1.975c5.172-0.037,11.761,0.401,15.849,2.488c1.215,0.621,2.009,1.499,2.473,2.519
	l21.819-1.868c1.197-0.102,2.246-0.625,3.056-1.391c0.555-0.525,0.99-1.163,1.266-1.884C72.165,168.18,72.3,167.42,72.232,166.624z
	 M45.209,170.648c-2.814,0.241-5.29-1.844-5.53-4.657c-0.093-1.103,0.179-2.147,0.703-3.032c0.813-1.373,2.245-2.352,3.957-2.498
	c2.067-0.177,3.941,0.906,4.891,2.605c0.344,0.614,0.574,1.304,0.639,2.051C50.111,167.933,48.024,170.406,45.209,170.648z"/>
<path fill="#707070" d="M49.23,163.066c-0.95-1.699-2.824-2.782-4.891-2.605c-1.712,0.146-3.144,1.125-3.957,2.498
	c-0.524,0.885-0.796,1.929-0.703,3.032c0.24,2.814,2.715,4.898,5.53,4.657c2.815-0.242,4.902-2.715,4.66-5.531
	C49.804,164.37,49.574,163.68,49.23,163.066z M45.051,168.784c-1.783,0.152-3.354-1.169-3.503-2.955
	c-0.101-1.163,0.432-2.226,1.306-2.873c0.466-0.345,1.025-0.578,1.645-0.631c0.848-0.073,1.641,0.194,2.262,0.677
	c0.688,0.535,1.164,1.337,1.243,2.274C48.158,167.061,46.836,168.631,45.051,168.784z"/>
<path fill="#424242" d="M46.761,163.003c-0.621-0.483-1.414-0.75-2.262-0.677c-0.621,0.053-1.179,0.286-1.645,0.631
	c-0.874,0.647-1.407,1.711-1.306,2.873c0.149,1.785,1.72,3.107,3.503,2.955c1.785-0.154,3.107-1.723,2.953-3.508
	C47.925,164.339,47.449,163.537,46.761,163.003z"/>
<path fill="#B9E5F8" d="M33.756,148.824c2.856,0.249,5.112,2.155,6.527,4.735l14.295-14.852c-0.081-0.152-0.162-0.303-0.24-0.456
	c-0.197-0.382-0.389-0.768-0.581-1.154c-0.144-0.289-0.289-0.576-0.431-0.867c-0.181-0.373-0.357-0.75-0.534-1.126
	c-0.144-0.306-0.289-0.612-0.429-0.92c-0.169-0.37-0.333-0.742-0.497-1.114c-0.14-0.318-0.281-0.636-0.418-0.956
	c-0.157-0.368-0.31-0.738-0.463-1.108c-0.136-0.329-0.272-0.659-0.404-0.99c-0.146-0.366-0.289-0.734-0.431-1.102
	c-0.131-0.34-0.261-0.68-0.389-1.022c-0.135-0.364-0.267-0.729-0.398-1.095c-0.125-0.35-0.25-0.701-0.371-1.054
	c-0.125-0.363-0.248-0.728-0.368-1.093c-0.119-0.358-0.236-0.718-0.35-1.078c-0.115-0.363-0.228-0.726-0.339-1.091
	c-0.112-0.368-0.221-0.736-0.329-1.105c-0.065-0.223-0.128-0.447-0.191-0.67c-6.187,4.099-12.209,8.121-17.405,11.607
	C34.995,133.764,39.129,137.865,33.756,148.824z"/>
<polygon fill="#B9E5F8" points="15.252,95.78 18.372,132.228 18.372,132.228 "/>
<path fill="#B9E5F8" d="M66.649,145.971c-1.208-3.721-1.964-7.881-1.921-11.652c0.019-1.622,0.188-3.168,0.532-4.579l-3.249-37.963
	l1.565,18.316c-5.22,3.39-10.754,7.03-16.162,10.613c0.063,0.224,0.126,0.448,0.191,0.67c0.107,0.369,0.217,0.738,0.329,1.105
	c0.111,0.365,0.224,0.728,0.339,1.091c0.115,0.36,0.231,0.72,0.35,1.078c0.121,0.365,0.243,0.73,0.368,1.093
	c0.121,0.352,0.246,0.703,0.371,1.054c0.131,0.366,0.263,0.731,0.398,1.095c0.127,0.342,0.258,0.682,0.389,1.022
	c0.142,0.368,0.284,0.736,0.431,1.102c0.132,0.331,0.268,0.661,0.404,0.99c0.153,0.37,0.306,0.74,0.463,1.108
	c0.137,0.32,0.278,0.638,0.418,0.956c0.164,0.372,0.328,0.745,0.497,1.114c0.141,0.308,0.286,0.613,0.429,0.92
	c0.177,0.376,0.353,0.752,0.534,1.126c0.141,0.29,0.287,0.578,0.431,0.867c0.192,0.385,0.383,0.771,0.581,1.154
	c0.079,0.153,0.16,0.304,0.24,0.456l-14.295,14.852c0.858,1.564,1.407,3.376,1.591,5.217l-3.32,0.284l0,0.001l26.793-2.293
	c0.428-0.037,0.813-0.199,1.134-0.439c0.592-0.444,0.953-1.168,0.886-1.961L66.649,145.971z"/>
<path fill="#707070" d="M34.944,86.685l6.113-0.523c0.657-0.056,1.147-0.632,1.089-1.291c-0.056-0.657-0.633-1.141-1.292-1.087
	l-6.112,0.526c-0.657,0.054-1.143,0.632-1.089,1.287C33.709,86.252,34.288,86.741,34.944,86.685z"/>
<path fill="#B9E5F8" d="M20.783,131.9l-0.029-0.115c0,0,4.945-0.725,9.254,0.528c5.197-3.486,11.218-7.509,17.405-11.607
	c-0.04-0.14-0.08-0.279-0.119-0.419c-0.104-0.375-0.206-0.752-0.305-1.129c-0.096-0.361-0.19-0.723-0.282-1.086
	c-0.097-0.384-0.19-0.77-0.282-1.156c-0.086-0.361-0.172-0.721-0.253-1.083c-0.089-0.391-0.173-0.784-0.256-1.177
	c-0.077-0.361-0.154-0.721-0.226-1.083c-0.08-0.399-0.155-0.799-0.23-1.2c-0.067-0.36-0.135-0.72-0.199-1.081
	c-0.071-0.407-0.137-0.817-0.203-1.226c-0.058-0.357-0.117-0.714-0.17-1.072c-0.063-0.418-0.119-0.838-0.176-1.258
	c-0.048-0.353-0.098-0.706-0.142-1.06c-0.054-0.43-0.1-0.862-0.148-1.294c-0.038-0.347-0.08-0.693-0.114-1.042
	c-0.044-0.446-0.081-0.894-0.119-1.341c-0.029-0.338-0.061-0.674-0.086-1.013c-0.035-0.473-0.062-0.947-0.09-1.422
	c-0.019-0.316-0.042-0.63-0.058-0.946c-0.026-0.528-0.043-1.058-0.06-1.588c-0.009-0.266-0.022-0.531-0.029-0.797
	c-0.02-0.797-0.03-1.597-0.03-2.399c0-1.25,0.032-2.492,0.08-3.73l-26.64,2.28c-1.221,0.104-2.126,1.176-2.022,2.397l3.12,36.448
	C19.183,132.093,19.989,131.983,20.783,131.9z"/>
<path fill="#B9E5F8" d="M43.865,97.232c0.007,0.267,0.02,0.531,0.029,0.797c0.018,0.53,0.034,1.061,0.06,1.588
	c0.016,0.316,0.039,0.631,0.058,0.946c0.028,0.474,0.055,0.949,0.09,1.422c0.025,0.339,0.057,0.675,0.086,1.013
	c0.038,0.447,0.075,0.895,0.119,1.341c0.035,0.348,0.076,0.695,0.114,1.042c0.048,0.432,0.094,0.864,0.148,1.294
	c0.044,0.354,0.094,0.707,0.142,1.06c0.057,0.42,0.113,0.84,0.176,1.258c0.054,0.358,0.113,0.715,0.17,1.072
	c0.066,0.409,0.132,0.818,0.203,1.226c0.063,0.361,0.131,0.721,0.199,1.081c0.075,0.401,0.15,0.801,0.23,1.2
	c0.073,0.362,0.149,0.723,0.226,1.083c0.084,0.393,0.168,0.786,0.256,1.177c0.082,0.362,0.167,0.723,0.253,1.083
	c0.092,0.386,0.185,0.772,0.282,1.156c0.091,0.363,0.186,0.725,0.282,1.086c0.1,0.377,0.201,0.754,0.305,1.129
	c0.039,0.14,0.08,0.279,0.119,0.419c5.408-3.583,10.942-7.223,16.162-10.613l-1.565-18.316c-0.105-1.219-1.18-2.123-2.4-2.018
	l-15.697,1.343c-0.048,1.238-0.08,2.48-0.08,3.73C43.834,95.635,43.845,96.435,43.865,97.232z"/>
<path opacity="0.2" fill="#D2D2D2" d="M62.011,91.778c-0.105-1.219-1.18-2.123-2.4-2.018l-15.697,1.343l-26.64,2.28
	c-1.221,0.104-2.126,1.176-2.022,2.397l3.12,36.448c0.81-0.136,1.616-0.246,2.411-0.328l-0.029-0.115c0,0,4.945-0.725,9.254,0.528
	c5.197-3.486,11.218-7.509,17.405-11.607c5.408-3.583,10.942-7.223,16.162-10.613L62.011,91.778z"/>
<path fill="#B9E5F8" d="M27.524,149.301l-1.566,0.477c2.633-0.39,5.178-0.506,7.336-0.142c3.173,0.535,4.752,2.916,5.218,5.762
	l1.77-1.839c-1.415-2.58-3.671-4.486-6.527-4.735c5.373-10.959,1.239-15.06-3.748-16.51c-0.307,0.206-0.609,0.409-0.91,0.611
	C34.161,136.426,31.728,147.642,27.524,149.301z"/>
<path opacity="0.1" fill="#010101" d="M27.524,149.301l-1.566,0.477c2.633-0.39,5.178-0.506,7.336-0.142
	c3.173,0.535,4.752,2.916,5.218,5.762l1.77-1.839c-1.415-2.58-3.671-4.486-6.527-4.735c5.373-10.959,1.239-15.06-3.748-16.51
	c-0.307,0.206-0.609,0.409-0.91,0.611C34.161,136.426,31.728,147.642,27.524,149.301z"/>
<path fill="#B9E5F8" d="M40.283,153.558l-1.77,1.839c0.193,1.174,0.195,2.426,0.042,3.662l3.32-0.284
	C41.69,156.934,41.141,155.123,40.283,153.558z"/>
<path opacity="0.1" fill="#010101" d="M40.283,153.558l-1.77,1.839c0.193,1.174,0.195,2.426,0.042,3.662l3.32-0.284
	C41.69,156.934,41.141,155.123,40.283,153.558z"/>
<path fill="#B9E5F8" d="M26.845,132.001c0.878,0.163,1.62,0.487,2.253,0.924c0.301-0.202,0.603-0.405,0.91-0.611
	c-4.309-1.253-9.254-0.528-9.254-0.528l0.029,0.115C22.961,131.674,25.045,131.667,26.845,132.001z"/>
<path opacity="0.2" fill="#FFFFFF" d="M26.845,132.001c0.878,0.163,1.62,0.487,2.253,0.924c0.301-0.202,0.603-0.405,0.91-0.611
	c-4.309-1.253-9.254-0.528-9.254-0.528l0.029,0.115C22.961,131.674,25.045,131.667,26.845,132.001z"/>
<path opacity="0.1" fill="#010101" d="M26.845,132.001c0.878,0.163,1.62,0.487,2.253,0.924c0.301-0.202,0.603-0.405,0.91-0.611
	c-4.309-1.253-9.254-0.528-9.254-0.528l0.029,0.115C22.961,131.674,25.045,131.667,26.845,132.001z"/>
<polygon fill="#FDCD9D" points="28.586,159.913 34.668,159.392 34.668,159.392 "/>
<rect x="34.661" y="159.226" transform="matrix(0.9964 -0.0853 0.0853 0.9964 -13.4525 3.7046)" fill="#FDCD9D" width="3.901" height="0.001"/>
<polygon fill="#FDCD9D" points="27.905,159.971 28.586,159.913 27.905,159.971 "/>
<path fill="#FDCD9D" d="M39.216,186.427c1.298-0.077,2.688-0.968,3.889-2.288c-2.019,1.157-4.271,1.93-6.11,2.419
	C38.361,186.494,39.216,186.427,39.216,186.427z"/>
<polygon fill="#FDCD9D" points="23.205,171.302 24.586,169.868 24.585,169.868 "/>
<path fill="#FDCD9D" d="M24.303,175.858l0.468-0.04c-1.23-2.612-1.566-4.515-1.566-4.515S23.327,173.245,24.303,175.858z"/>
<path fill="#FDCD9D" d="M45.756,174.021c-0.464-1.02-1.258-1.898-2.473-2.519c-4.088-2.088-10.678-2.525-15.849-2.488l-2.848,0.854
	l-1.381,1.435c0,0,0.336,1.904,1.566,4.515l-0.468,0.04c-0.976-2.613-1.098-4.555-1.098-4.555l1.381-1.435l-6.582,1.973
	l-0.489,0.147c-0.02-0.003-0.038-0.006-0.058-0.009c-2.74,4.302-4.409,12.553,6.34,14.18c3.253,0.492,7.149,0.555,10.212,0.497
	c0.254-0.005,0.497-0.011,0.739-0.017c0.839-0.022,1.603-0.051,2.248-0.081c1.84-0.49,4.091-1.262,6.11-2.419
	C45.516,181.489,47.159,177.102,45.756,174.021z"/>
<path fill="#FDCD9D" d="M18.003,171.841c-0.035-0.174-0.081-0.343-0.098-0.524c-0.152,0.207-0.301,0.43-0.448,0.661
	c0.02,0.003,0.038,0.006,0.058,0.009L18.003,171.841z"/>
<path fill="#FDCD9D" d="M25.37,169.053c-2.373,0.074-4.248,0.227-5.114,0.308c-0.623,0.059-1.507,0.807-2.351,1.956
	c0.017,0.18,0.063,0.35,0.098,0.524l6.582-1.973L25.37,169.053z"/>
<rect x="24.412" y="169.46" transform="matrix(0.6935 -0.7205 0.7205 0.6935 -114.4353 69.938)" fill="#FDCD9D" width="1.131" height="0"/>
<path fill="#FDCD9D" d="M24.586,169.868l2.848-0.854c-0.719,0.005-1.41,0.019-2.064,0.039L24.586,169.868z"/>
<path fill="#FDCD9D" d="M16.308,152.714l-0.05-0.583c-1.974,0.628-3.757,1.271-5.194,1.82c0.253,0.043,0.495,0.09,0.758,0.128
	L16.308,152.714z"/>
<path fill="#FDCD9D" d="M19.982,151.041c-1.286,0.341-2.538,0.712-3.724,1.09l0.05,0.583l3.721-1.132L19.982,151.041z"/>
<path fill="#FDCD9D" d="M25.365,149.958l-0.022-0.087c-1.787,0.291-3.603,0.703-5.36,1.169l0.046,0.541L25.365,149.958z"/>
<path fill="#FDCD9D" d="M25.343,149.872l0.022,0.087l0.593-0.18C25.753,149.808,25.549,149.838,25.343,149.872z"/>
<path fill="#FDCD9D" d="M85.876,159.434c-0.075-0.208-0.142-0.413-0.213-0.619c0.026,0.195,0.049,0.39,0.07,0.586L85.876,159.434z"
	/>
<path fill="#FDCD9D" d="M85.734,159.4c-0.022-0.196-0.045-0.391-0.07-0.586c-0.868-2.534-1.452-4.91-1.817-7.133
	c-0.329-2.006-0.484-3.889-0.517-5.654c-0.283-15.249,8.502-21.732-8.239-23.387c-2.787-0.275-4.909,0.321-6.493,1.513
	c-1.693,1.274-2.764,3.235-3.339,5.588c-0.345,1.411-0.513,2.957-0.532,4.579c-0.043,3.771,0.713,7.931,1.921,11.652
	c1.202,3.703,2.848,6.956,4.583,8.963c0.511,0.59,1.028,1.084,1.545,1.436l0.469,0.11l-1.729,1.792l0.329,3.841l0.386,4.512
	c0.068,0.796-0.067,1.556-0.335,2.255c0.871,1.642,0.807,3.044,0.054,4.208c-2.683,4.151-14.154,5.262-23.568,3.292
	c0.05,3.624-2.368,6.093-5.278,7.76c-1.201,1.32-2.591,2.211-3.889,2.288c0,0-0.855,0.067-2.221,0.131
	c-0.614,0.164-1.185,0.298-1.681,0.404c-0.194-0.105-0.379-0.215-0.566-0.323c-0.242,0.006-0.485,0.012-0.739,0.017
	c6.095,3.09,15.615,4.385,30.481,0.631c10.537-2.661,16.667-8.311,19.5-14.972c1.115-2.621,1.719-5.397,1.879-8.211
	C85.957,162.54,85.908,160.966,85.734,159.4z"/>
<path fill="#282828" d="M181.801,105.95c0.646-1.135,1.389-2.667,2.242-4.663c-0.566-0.127-1.157-0.286-1.774-0.479
	C182.121,102.495,181.965,104.21,181.801,105.95z"/>
<path fill="#FDCD9D" d="M189.212,88.954c1.365,0.399,2.282,1.366,2.051,2.16c-0.234,0.793-1.528,1.111-2.892,0.711
	c-0.222-0.065-0.427-0.149-0.622-0.241c-0.229,0.649-0.474,1.32-0.715,1.986c2.387,0.861,1.825,4.178-1.534,4.121
	c-0.518,1.336-1.004,2.534-1.457,3.597c12.946,2.91,12.675-10.715,5.007-13.516c-0.117,0.354-0.232,0.705-0.353,1.065
	C188.866,88.864,189.038,88.903,189.212,88.954z"/>
<path fill="#FDCD9D" d="M183.273,87.709c-0.263,4.117-0.603,8.506-1.004,13.1c0.617,0.193,1.208,0.351,1.774,0.479
	c0.454-1.063,0.94-2.261,1.457-3.597c-0.752-0.013-1.639-0.189-2.67-0.607l0.435-3.2c1.651-0.618,2.901-0.626,3.768-0.314
	c0.242-0.666,0.487-1.338,0.715-1.986c-1.007-0.473-1.625-1.257-1.43-1.919c0.203-0.692,1.216-1.021,2.377-0.828
	c0.121-0.36,0.236-0.711,0.353-1.065C187.434,87.181,185.491,87.079,183.273,87.709z"/>
<path fill="#BD7E50" d="M187.034,93.569c-0.25,0.689-0.49,1.365-0.754,2.073c-0.269,0.721-0.527,1.396-0.78,2.048
	C188.859,97.747,189.421,94.43,187.034,93.569z"/>
<path fill="#BD7E50" d="M187.034,93.569c-0.867-0.312-2.117-0.304-3.768,0.314l-0.435,3.2c1.031,0.418,1.918,0.594,2.67,0.607
	c0.253-0.653,0.511-1.327,0.78-2.048C186.544,94.934,186.784,94.258,187.034,93.569z"/>
<path fill="#FDCD9D" d="M191.262,91.114c0.232-0.794-0.686-1.761-2.051-2.16c-0.174-0.051-0.346-0.09-0.515-0.118
	c-0.302,0.897-0.618,1.813-0.947,2.747c0.195,0.092,0.4,0.176,0.622,0.241C189.735,92.224,191.028,91.906,191.262,91.114z"/>
<path opacity="0.3" fill="#FFFFFF" d="M191.262,91.114c0.232-0.794-0.686-1.761-2.051-2.16c-0.174-0.051-0.346-0.09-0.515-0.118
	c-0.302,0.897-0.618,1.813-0.947,2.747c0.195,0.092,0.4,0.176,0.622,0.241C189.735,92.224,191.028,91.906,191.262,91.114z"/>
<path fill="#FDCD9D" d="M186.319,89.663c-0.195,0.663,0.423,1.446,1.43,1.919c0.329-0.934,0.645-1.85,0.947-2.747
	C187.535,88.642,186.522,88.972,186.319,89.663z"/>
<path opacity="0.3" fill="#FFFFFF" d="M186.319,89.663c-0.195,0.663,0.423,1.446,1.43,1.919c0.329-0.934,0.645-1.85,0.947-2.747
	C187.535,88.642,186.522,88.972,186.319,89.663z"/>
<path fill="#282828" d="M88.268,95.241c0.833,2.152,1.753,4.307,2.769,6.454c0.079-2.35,0.164-4.656,0.257-6.914
	C90.195,95.039,89.189,95.188,88.268,95.241z"/>
<path fill="#FDCD9D" d="M86.311,89.687c-0.422-1.328-0.814-2.651-1.17-3.966c-0.803-0.096-1.41-0.455-1.523-0.995
	c-0.108-0.514,0.256-1.061,0.892-1.468c-0.096-0.395-0.192-0.791-0.282-1.184c-5.712,3.545-5.776,13.735,4.04,13.167
	c-0.718-1.855-1.369-3.708-1.956-5.551C86.312,89.689,86.311,89.688,86.311,89.687z"/>
<path fill="#FDCD9D" d="M91.46,90.917c-3.003,0.992-4.72,0.009-5.148-1.226c0.586,1.843,1.238,3.696,1.956,5.551
	c0.921-0.053,1.928-0.202,3.026-0.46C91.347,93.477,91.402,92.186,91.46,90.917z"/>
<path fill="#FDCD9D" d="M85.829,82.732c1.391-0.294,2.657,0.124,2.829,0.931c0.17,0.808-0.82,1.703-2.212,1.995
	c-0.462,0.098-0.907,0.111-1.306,0.063c0.357,1.315,0.748,2.638,1.17,3.966c-0.568-1.653,1.16-3.739,5.171-2.103l0.094,0.885
	c0.117-2.391,0.243-4.716,0.378-6.959c-3.129-1.073-5.761-0.655-7.727,0.565c0.09,0.393,0.186,0.789,0.282,1.184
	C84.873,83.026,85.323,82.838,85.829,82.732z"/>
<path fill="#BD7E50" d="M86.312,89.69c0-0.001-0.001-0.003-0.001-0.004C86.311,89.688,86.312,89.689,86.312,89.69z"/>
<path fill="#BD7E50" d="M91.482,87.584c-4.011-1.636-5.74,0.45-5.171,2.103c0,0.001,0.001,0.003,0.001,0.004
	c0.428,1.235,2.145,2.218,5.148,1.226c0.038-0.825,0.077-1.639,0.116-2.448L91.482,87.584z"/>
<path fill="#FDCD9D" d="M83.617,84.726c0.113,0.539,0.721,0.899,1.523,0.995c-0.224-0.824-0.433-1.645-0.631-2.462
	C83.873,83.665,83.509,84.213,83.617,84.726z"/>
<path opacity="0.3" fill="#FFFFFF" d="M83.617,84.726c0.113,0.539,0.721,0.899,1.523,0.995c-0.224-0.824-0.433-1.645-0.631-2.462
	C83.873,83.665,83.509,84.213,83.617,84.726z"/>
<path fill="#FDCD9D" d="M86.446,85.658c1.392-0.292,2.382-1.186,2.212-1.995c-0.172-0.807-1.438-1.225-2.829-0.931
	c-0.506,0.107-0.957,0.294-1.32,0.527c0.198,0.817,0.408,1.638,0.631,2.462C85.54,85.769,85.984,85.756,86.446,85.658z"/>
<path opacity="0.3" fill="#FFFFFF" d="M86.446,85.658c1.392-0.292,2.382-1.186,2.212-1.995c-0.172-0.807-1.438-1.225-2.829-0.931
	c-0.506,0.107-0.957,0.294-1.32,0.527c0.198,0.817,0.408,1.638,0.631,2.462C85.54,85.769,85.984,85.756,86.446,85.658z"/>
<path fill="#FDCD9D" d="M180.137,100.053c0.745,0.299,1.45,0.543,2.132,0.756c0.401-4.594,0.741-8.983,1.004-13.1
	c-0.732,0.208-1.485,0.474-2.274,0.851L180.137,100.053z"/>
<path fill="#FDCD9D" d="M182.77,56.251c-0.357,0.112-0.736,0.224-1.103,0.336c-22.199,6.766-62.711,12.515-83.256,2.237
	c-1.433-0.717-2.768-1.513-3.993-2.391c-0.455,2.913-0.885,6.346-1.291,10.246c-0.455,4.381-0.842,9.374-1.172,14.83
	c0.634,0.217,1.28,0.474,1.953,0.82l0.522,11.513c-1.124,0.413-2.158,0.709-3.136,0.939c-0.092,2.258-0.178,4.564-0.257,6.914
	c-0.344,10.229-0.568,21.254-0.714,32.49l35.188,13.507l0.096-1.2l17.769,0.654l-0.118,1.827l1.79,0.077l-0.016,0.253l32.948-8.777
	c1.486-12.039,2.805-23.792,3.821-34.577c0.164-1.74,0.32-3.455,0.468-5.141c-0.682-0.213-1.387-0.457-2.132-0.756l0.862-11.492
	c0.789-0.378,1.543-0.644,2.274-0.851c0.315-4.935,0.523-9.486,0.601-13.55C184.026,66.36,183.707,60.17,182.77,56.251z
	 M103.454,71.572c0,0,11.413-2.881,17.315-3.812c5.906-0.931,6.404,6.592,2.336,7.142c-4.071,0.551-11.604,1.863-16.496,3.011
	C101.718,79.06,98.957,73.336,103.454,71.572z M121.568,85.731c-0.035,3.062-2.545,5.513-5.603,5.478
	c-3.059-0.034-5.512-2.541-5.478-5.603c0.036-3.061,2.545-5.512,5.604-5.478C119.149,80.165,121.602,82.671,121.568,85.731z
	 M168.415,107.589c-0.03,1.207-0.124,2.418-0.277,3.628c-0.001,0.007-0.001,0.014-0.002,0.021l-0.001,0
	c-1.053,8.3-4.961,16.486-11.429,22.144c0.001,0,0.001,0,0.002-0.001c-0.41,0.359-0.833,0.704-1.263,1.042
	c-0.124,0.098-0.252,0.191-0.378,0.287c-0.311,0.236-0.625,0.468-0.947,0.693c-0.135,0.095-0.271,0.189-0.409,0.282
	c-0.025,0.017-0.05,0.033-0.075,0.049c-0.197,0.132-0.393,0.263-0.594,0.391c-0.139,0.089-0.28,0.175-0.421,0.261
	c-0.123,0.076-0.246,0.152-0.37,0.226c-0.118,0.07-0.235,0.141-0.354,0.209c-0.247,0.142-0.499,0.277-0.751,0.413
	c-0.041,0.022-0.082,0.046-0.123,0.068c-0.076,0.04-0.149,0.084-0.225,0.124c-0.154,0.08-0.313,0.154-0.469,0.232
	c-0.26,0.13-0.521,0.26-0.787,0.383c-0.087,0.04-0.175,0.08-0.263,0.12c-0.116,0.052-0.235,0.1-0.352,0.151
	c-0.221,0.096-0.441,0.192-0.665,0.283c-0.185,0.075-0.371,0.147-0.558,0.219c-0.106,0.041-0.21,0.083-0.317,0.123
	c-0.149,0.055-0.302,0.107-0.452,0.16c-0.198,0.07-0.397,0.138-0.598,0.204c-0.16,0.052-0.32,0.104-0.481,0.155
	c-0.126,0.039-0.253,0.075-0.379,0.113c-0.168,0.05-0.336,0.101-0.506,0.148c-0.274,0.076-0.553,0.145-0.832,0.214
	c-0.125,0.031-0.247,0.065-0.373,0.094c-0.067,0.016-0.132,0.032-0.199,0.047c-0.468,0.106-0.942,0.202-1.422,0.288
	c-0.046,0.008-0.093,0.016-0.139,0.024c-0.104,0.018-0.212,0.031-0.316,0.048c-0.342,0.056-0.685,0.11-1.033,0.156
	c-0.155,0.02-0.311,0.038-0.467,0.056c-0.133,0.016-0.267,0.031-0.401,0.045c-0.221,0.023-0.444,0.044-0.668,0.062
	c-0.202,0.017-0.405,0.031-0.609,0.045c-0.174,0.011-0.347,0.026-0.522,0.035c-0.081,0.004-0.164,0.004-0.246,0.008
	c-0.072,0.003-0.145,0.004-0.218,0.007c-0.2,0.007-0.401,0.015-0.603,0.02c-0.274,0.005-0.551,0.006-0.828,0.005
	c-0.146,0-0.292,0-0.439-0.002c-0.117-0.002-0.232-0.002-0.349-0.005c-0.544-0.013-1.092-0.036-1.648-0.074
	c-0.872-0.06-1.72-0.149-2.557-0.252c-0.117-0.014-0.238-0.023-0.355-0.039c-0.098-0.013-0.192-0.03-0.29-0.044
	c-0.794-0.11-1.575-0.236-2.336-0.386c-0.047-0.009-0.093-0.02-0.14-0.03c-0.141-0.028-0.278-0.061-0.418-0.091
	c-0.636-0.135-1.261-0.284-1.874-0.448c-0.109-0.029-0.22-0.057-0.328-0.087c-0.002,0-0.003-0.001-0.005-0.001
	c-0.094-0.026-0.19-0.048-0.283-0.075c-0.685-0.196-1.352-0.413-2.007-0.645c-0.04-0.014-0.079-0.03-0.118-0.044
	c-0.037-0.013-0.073-0.027-0.109-0.041c-0.156-0.057-0.31-0.114-0.464-0.173c-0.562-0.214-1.113-0.441-1.651-0.682
	c-0.009-0.004-0.019-0.008-0.028-0.012c-0.144-0.065-0.289-0.127-0.431-0.194c-0.075-0.035-0.146-0.074-0.221-0.11
	c-0.516-0.247-1.019-0.509-1.512-0.783c-0.011-0.006-0.022-0.013-0.033-0.019c-0.109-0.061-0.216-0.122-0.324-0.184
	c-0.11-0.063-0.223-0.124-0.332-0.188c-0.632-0.375-1.244-0.774-1.837-1.194c-0.116-0.082-0.229-0.167-0.343-0.25
	c-7.94-5.81-12.304-15.755-12.687-29.741c-0.001-0.036-0.003-0.071-0.004-0.107c-0.022-0.833-0.033-1.676-0.026-2.538
	c0,0,36.86,19.093,65.368,1.435c0.049,0.592,0.081,1.188,0.099,1.785c0,0.008,0,0.015,0.001,0.023c0.002,0.057,0,0.114,0.001,0.171
	c0.014,0.557,0.015,1.115,0.002,1.674C168.417,107.543,168.415,107.566,168.415,107.589z M151.954,88.718
	c0.036-3.06,2.545-5.512,5.604-5.477s5.511,2.543,5.477,5.604c-0.035,3.06-2.545,5.512-5.603,5.477
	C154.373,94.287,151.921,91.78,151.954,88.718z M167.873,81.811c-4.765-1.598-12.144-3.605-16.143-4.533
	c-4.002-0.926-2.805-8.369,2.988-6.893c5.79,1.475,16.887,5.406,16.887,5.406C175.917,77.965,172.637,83.409,167.873,81.811z"/>
<path fill="#FDCD9D" d="M91.824,90.795c-0.125,0.047-0.243,0.082-0.364,0.122c-0.058,1.27-0.113,2.561-0.166,3.865
	c0.978-0.229,2.012-0.525,3.136-0.939L93.908,82.33c-0.673-0.346-1.319-0.603-1.953-0.82c-0.136,2.242-0.261,4.568-0.378,6.959
	L91.824,90.795z"/>
<path fill="#FDCD9D" d="M91.576,88.468c-0.04,0.809-0.079,1.623-0.116,2.448c0.121-0.04,0.239-0.075,0.364-0.122L91.576,88.468z"/>
<path fill="#42140E" d="M141.69,140.432c0.105-0.017,0.212-0.03,0.316-0.048c-0.094,0.016-0.191,0.028-0.286,0.043
	C141.711,140.429,141.7,140.43,141.69,140.432z"/>
<path fill="#42140E" d="M151.024,137.303c-0.076,0.04-0.149,0.084-0.225,0.124C150.875,137.387,150.948,137.343,151.024,137.303z"/>
<path fill="#42140E" d="M152.252,136.613c0.125-0.074,0.247-0.15,0.37-0.226c-0.048,0.029-0.096,0.057-0.144,0.086
	C152.402,136.519,152.328,136.567,152.252,136.613z"/>
<polygon fill="#42140E" points="125.357,139.412 125.362,139.414 125.361,139.413 "/>
<path fill="#42140E" d="M137.99,140.831c-0.081,0.004-0.164,0.004-0.246,0.008C137.826,140.835,137.909,140.835,137.99,140.831z"/>
<path fill="#42140E" d="M120.724,137.752c0.538,0.242,1.09,0.468,1.651,0.682c-0.327-0.125-0.637-0.268-0.956-0.402
	C121.191,137.936,120.95,137.853,120.724,137.752z"/>
<path fill="#42140E" d="M125.69,139.5c0.613,0.164,1.237,0.313,1.874,0.448c-0.322-0.068-0.629-0.154-0.945-0.23
	C126.31,139.645,125.993,139.581,125.69,139.5z"/>
<path fill="#42140E" d="M168.315,103.866c0.049,0.592,0.082,1.188,0.099,1.785C168.395,105.054,168.364,104.458,168.315,103.866z"/>
<path fill="#42140E" d="M145.477,139.567c0.126-0.037,0.254-0.074,0.379-0.113c-0.103,0.032-0.209,0.061-0.313,0.092
	C145.521,139.554,145.499,139.561,145.477,139.567z"/>
<path fill="#42140E" d="M143.767,140.024c0.126-0.029,0.248-0.064,0.373-0.094c-0.043,0.011-0.085,0.021-0.128,0.032
	C143.929,139.981,143.849,140.004,143.767,140.024z"/>
<path fill="#42140E" d="M133.659,140.789c-0.872-0.06-1.72-0.149-2.557-0.252C131.939,140.64,132.787,140.73,133.659,140.789z"/>
<path fill="#42140E" d="M118.176,136.45c0.108,0.062,0.215,0.124,0.324,0.184c-0.052-0.029-0.099-0.064-0.151-0.093
	C118.292,136.51,118.232,136.483,118.176,136.45z"/>
<path fill="#42140E" d="M148.928,138.312c0.117-0.051,0.236-0.099,0.352-0.151c-0.099,0.045-0.201,0.085-0.301,0.128
	C148.962,138.297,148.945,138.305,148.928,138.312z"/>
<path fill="#42140E" d="M147.387,138.936c0.107-0.039,0.211-0.082,0.317-0.123c-0.011,0.004-0.022,0.008-0.032,0.012
	C147.576,138.862,147.483,138.901,147.387,138.936z"/>
<path fill="#42140E" d="M118.533,136.653c0.493,0.274,0.996,0.536,1.512,0.783c-0.322-0.154-0.625-0.33-0.939-0.495
	C118.917,136.842,118.718,136.756,118.533,136.653z"/>
<path fill="#42140E" d="M128.122,140.069c0.761,0.15,1.542,0.276,2.336,0.386c-0.289-0.04-0.564-0.097-0.849-0.142
	C129.111,140.233,128.606,140.165,128.122,140.069z"/>
<path fill="#42140E" d="M120.265,137.546c0.142,0.067,0.287,0.129,0.431,0.194c-0.052-0.023-0.099-0.052-0.151-0.076
	C120.454,137.622,120.356,137.589,120.265,137.546z"/>
<path fill="#42140E" d="M123.067,138.692c0.655,0.232,1.322,0.449,2.007,0.645c-0.397-0.114-0.773-0.253-1.16-0.379
	C123.634,138.867,123.342,138.79,123.067,138.692z"/>
<path fill="#42140E" d="M135.656,140.868c0.147,0.002,0.293,0.001,0.439,0.002c-0.087,0-0.175-0.001-0.263-0.002
	C135.774,140.867,135.716,140.869,135.656,140.868z"/>
<path fill="#42140E" d="M102.947,102.432c-0.007,0.862,0.005,1.705,0.026,2.538C102.95,104.138,102.94,103.293,102.947,102.432z"/>
<path fill="#42140E" d="M155.445,134.424c-0.124,0.098-0.252,0.191-0.378,0.287C155.192,134.615,155.321,134.521,155.445,134.424z"
	/>
<path fill="#42140E" d="M168.417,107.481c0,0.013,0,0.026,0,0.039c0.013-0.56,0.012-1.118-0.002-1.674
	c0.008,0.331,0.003,0.664,0.001,0.996C168.415,107.055,168.422,107.267,168.417,107.481z"/>
<path fill="#42140E" d="M168.328,109.29c-0.047,0.642-0.11,1.285-0.19,1.927c0.153-1.21,0.247-2.421,0.277-3.628
	c-0.014,0.523-0.043,1.046-0.08,1.57C168.332,109.203,168.331,109.247,168.328,109.29z"/>
<path fill="#42140E" d="M139.789,140.688c0.134-0.014,0.268-0.029,0.401-0.045c-0.034,0.004-0.069,0.006-0.103,0.01
	C139.988,140.665,139.889,140.678,139.789,140.688z"/>
<path fill="#42140E" d="M116.289,135.251c-0.092-0.063-0.191-0.119-0.282-0.183c0.594,0.42,1.205,0.819,1.837,1.194
	c-0.302-0.179-0.585-0.381-0.879-0.571C116.739,135.545,116.509,135.403,116.289,135.251z"/>
<path fill="#42140E" d="M122.84,138.607c0.037,0.013,0.073,0.028,0.109,0.041c-0.023-0.008-0.043-0.018-0.066-0.026
	C122.869,138.616,122.854,138.612,122.84,138.607z"/>
<path fill="#42140E" d="M103.086,107.474c-0.049-0.786-0.085-1.586-0.109-2.397c0.383,13.986,4.747,23.931,12.687,29.741
	c-0.232-0.17-0.448-0.357-0.674-0.533c-0.14-0.11-0.291-0.207-0.429-0.319c0.005-0.003,0.01-0.006,0.015-0.009
	c-0.219-0.179-0.453-0.341-0.666-0.527c0.4-0.083,0.938-0.09,1.594-0.043c3.309-2.171,6.093-5.249,19.717-5.65
	c10.709-0.316,12.897,1.554,17.864,6.899c1.217-0.355,2.427-0.767,3.62-1.254c6.467-5.659,10.376-13.845,11.429-22.144
	C138.484,126.763,109.74,111.487,103.086,107.474z"/>
<path fill="#42140E" d="M153.926,135.543c-0.07,0.049-0.144,0.094-0.215,0.142c0.137-0.093,0.273-0.187,0.409-0.282
	c-0.065,0.046-0.132,0.09-0.198,0.136C153.923,135.54,153.925,135.542,153.926,135.543z"/>
<path fill="#CD4B27" d="M145.856,139.455c0.161-0.05,0.321-0.102,0.481-0.155c-0.098,0.032-0.197,0.061-0.295,0.092
	C145.979,139.412,145.919,139.435,145.856,139.455z"/>
<path fill="#CD4B27" d="M136.095,140.87c0.277,0.001,0.554,0.001,0.828-0.005c-0.216,0.004-0.436,0.001-0.655,0.002
	C136.211,140.867,136.154,140.87,136.095,140.87z"/>
<path fill="#CD4B27" d="M137.99,140.831c0.176-0.009,0.348-0.024,0.522-0.035c-0.072,0.005-0.146,0.007-0.218,0.011
	C138.192,140.813,138.093,140.826,137.99,140.831z"/>
<path fill="#CD4B27" d="M120.724,137.752c-0.009-0.004-0.019-0.008-0.028-0.012C120.706,137.744,120.715,137.748,120.724,137.752z"
	/>
<path fill="#CD4B27" d="M139.121,140.751c0.224-0.019,0.447-0.039,0.668-0.062c-0.073,0.008-0.148,0.01-0.221,0.018
	C139.419,140.72,139.271,140.738,139.121,140.751z"/>
<path fill="#CD4B27" d="M140.657,140.587c0.348-0.046,0.691-0.1,1.033-0.156c-0.008,0.001-0.017,0.002-0.025,0.003
	C141.331,140.49,140.997,140.543,140.657,140.587z"/>
<path fill="#CD4B27" d="M137.527,140.846c0.072-0.003,0.145-0.004,0.218-0.007c-0.042,0.002-0.085,0.001-0.127,0.002
	C137.587,140.842,137.557,140.844,137.527,140.846z"/>
<path fill="#CD4B27" d="M144.139,139.929c0.279-0.069,0.558-0.138,0.832-0.214c-0.251,0.07-0.507,0.131-0.761,0.195
	C144.186,139.916,144.163,139.923,144.139,139.929z"/>
<path fill="#CD4B27" d="M118.533,136.653c-0.011-0.006-0.022-0.013-0.033-0.019C118.511,136.641,118.521,136.647,118.533,136.653z"
	/>
<path fill="#CD4B27" d="M151.898,136.822c-0.247,0.142-0.499,0.277-0.751,0.413C151.399,137.099,151.651,136.964,151.898,136.822z"
	/>
<path fill="#CD4B27" d="M135.307,140.863c-0.544-0.013-1.092-0.036-1.648-0.074C134.215,140.827,134.763,140.85,135.307,140.863z"/>
<path fill="#CD4B27" d="M152.622,136.387c0.141-0.087,0.282-0.173,0.421-0.261c-0.114,0.073-0.232,0.142-0.347,0.214
	C152.671,136.355,152.647,136.371,152.622,136.387z"/>
<path fill="#CD4B27" d="M143.567,140.071c-0.468,0.106-0.942,0.202-1.422,0.288C142.626,140.273,143.099,140.177,143.567,140.071z"
	/>
<path fill="#CD4B27" d="M153.637,135.734c0.025-0.017,0.05-0.033,0.075-0.049c-0.016,0.011-0.032,0.02-0.048,0.031
	C153.655,135.722,153.646,135.728,153.637,135.734z"/>
<path fill="#CD4B27" d="M130.748,140.499c0.116,0.015,0.238,0.024,0.355,0.039c-0.037-0.005-0.073-0.009-0.11-0.014
	C130.912,140.513,130.827,140.509,130.748,140.499z"/>
<path fill="#CD4B27" d="M146.935,139.096c0.151-0.053,0.303-0.104,0.452-0.16c-0.074,0.027-0.152,0.05-0.226,0.077
	C147.085,139.04,147.011,139.069,146.935,139.096z"/>
<path fill="#CD4B27" d="M150.329,137.658c-0.26,0.13-0.521,0.26-0.787,0.383C149.809,137.918,150.069,137.788,150.329,137.658z"/>
<path fill="#CD4B27" d="M127.982,140.039c0.047,0.009,0.093,0.02,0.14,0.03c-0.043-0.009-0.085-0.019-0.128-0.028
	C127.99,140.041,127.986,140.04,127.982,140.039z"/>
<path fill="#CD4B27" d="M148.262,138.595c0.224-0.091,0.445-0.187,0.665-0.283c-0.015,0.007-0.031,0.012-0.046,0.019
	C148.676,138.42,148.471,138.51,148.262,138.595z"/>
<path fill="#CD4B27" d="M123.067,138.692c-0.04-0.014-0.079-0.03-0.118-0.044C122.989,138.662,123.027,138.678,123.067,138.692z"/>
<path fill="#CD4B27" d="M125.69,139.5c-0.109-0.029-0.22-0.057-0.328-0.087C125.471,139.444,125.581,139.471,125.69,139.5z"/>
<path fill="#CD4B27" d="M153.086,134.637c-4.967-5.346-7.155-7.216-17.864-6.899c-13.624,0.401-16.407,3.479-19.717,5.65
	C121.576,133.822,137.99,139.037,153.086,134.637z"/>
<path fill="#CD4B27" d="M135.833,140.868c0.088,0.001,0.175,0.002,0.263,0.002c0.059,0,0.115-0.003,0.174-0.003
	C136.124,140.867,135.979,140.869,135.833,140.868z"/>
<path fill="#CD4B27" d="M139.568,140.706c0.073-0.007,0.148-0.01,0.221-0.018c0.1-0.01,0.199-0.023,0.299-0.035
	C139.916,140.673,139.741,140.689,139.568,140.706z"/>
<path fill="#CD4B27" d="M122.883,138.622c0.023,0.008,0.043,0.018,0.066,0.026c0.04,0.014,0.079,0.03,0.118,0.044
	c0.275,0.098,0.567,0.175,0.847,0.266C123.57,138.846,123.219,138.743,122.883,138.622z"/>
<path fill="#CD4B27" d="M127.994,140.041c0.043,0.009,0.085,0.019,0.128,0.028c0.484,0.096,0.99,0.164,1.487,0.243
	C129.067,140.226,128.52,140.147,127.994,140.041z"/>
<path fill="#CD4B27" d="M137.617,140.841c0.042-0.002,0.085-0.001,0.127-0.002c0.081-0.004,0.165-0.004,0.246-0.008
	c0.103-0.005,0.202-0.018,0.304-0.024C138.069,140.82,137.844,140.832,137.617,140.841z"/>
<path fill="#CD4B27" d="M131.102,140.537c0.837,0.103,1.685,0.193,2.557,0.252c-0.91-0.062-1.795-0.156-2.667-0.266
	C131.029,140.528,131.065,140.533,131.102,140.537z"/>
<path fill="#CD4B27" d="M144.011,139.961c0.043-0.01,0.086-0.021,0.128-0.032c0.024-0.006,0.047-0.013,0.071-0.019
	C144.143,139.927,144.078,139.945,144.011,139.961z"/>
<path fill="#CD4B27" d="M114.561,133.966c0.138,0.112,0.289,0.209,0.429,0.319c-0.139-0.108-0.278-0.216-0.414-0.327
	C114.571,133.96,114.566,133.963,114.561,133.966z"/>
<path fill="#CD4B27" d="M148.882,138.331c0.015-0.007,0.031-0.012,0.046-0.019c0.017-0.008,0.034-0.015,0.052-0.023
	C148.947,138.304,148.914,138.317,148.882,138.331z"/>
<path fill="#CD4B27" d="M147.161,139.013c0.075-0.027,0.152-0.049,0.226-0.077c0.096-0.035,0.189-0.075,0.285-0.111
	C147.503,138.89,147.332,138.951,147.161,139.013z"/>
<path fill="#CD4B27" d="M145.543,139.547c0.104-0.031,0.209-0.06,0.313-0.092c0.063-0.019,0.123-0.043,0.185-0.063
	C145.876,139.445,145.71,139.497,145.543,139.547z"/>
<path fill="#CD4B27" d="M116.289,135.251c0.221,0.152,0.451,0.293,0.677,0.44C116.739,135.545,116.509,135.403,116.289,135.251z"/>
<path fill="#CD4B27" d="M120.545,137.664c0.052,0.024,0.099,0.052,0.151,0.076c0.009,0.004,0.019,0.008,0.028,0.012
	c0.225,0.101,0.466,0.184,0.695,0.28C121.128,137.91,120.83,137.794,120.545,137.664z"/>
<path fill="#CD4B27" d="M118.349,136.542c0.052,0.029,0.099,0.064,0.151,0.093c0.011,0.006,0.022,0.013,0.033,0.019
	c0.185,0.103,0.385,0.189,0.573,0.288C118.853,136.808,118.596,136.681,118.349,136.542z"/>
<path fill="#CD4B27" d="M153.922,135.539c-0.086,0.059-0.172,0.118-0.258,0.177c0.016-0.01,0.032-0.02,0.048-0.031
	c0.071-0.048,0.144-0.093,0.215-0.142C153.925,135.542,153.923,135.54,153.922,135.539z"/>
<path fill="#CD4B27" d="M125.361,139.413l0.002,0c0.108,0.03,0.219,0.058,0.328,0.087c0.303,0.081,0.62,0.144,0.929,0.218
	C126.198,139.618,125.77,139.527,125.361,139.413z"/>
<path fill="#CD4B27" d="M141.665,140.435c0.008-0.001,0.017-0.002,0.025-0.003c0.01-0.002,0.02-0.003,0.03-0.005
	C141.702,140.43,141.684,140.432,141.665,140.435z"/>
<path fill="#CD4B27" d="M152.478,136.473c0.048-0.029,0.096-0.057,0.144-0.086c0.025-0.015,0.049-0.032,0.074-0.047
	C152.623,136.384,152.551,136.429,152.478,136.473z"/>
<path fill="#FFFFFF" d="M168.136,111.238c0.001-0.007,0.001-0.014,0.002-0.021C168.137,111.224,168.136,111.231,168.136,111.238
	L168.136,111.238z"/>
<path fill="#FFFFFF" d="M102.977,105.077c-0.001-0.036-0.003-0.071-0.004-0.107C102.974,105.005,102.976,105.041,102.977,105.077z"
	/>
<path fill="#FFFFFF" d="M168.415,105.846c-0.001-0.057,0-0.114-0.001-0.171c0,0.016,0,0.032,0,0.048
	C168.415,105.763,168.414,105.804,168.415,105.846z"/>
<path fill="#FFFFFF" d="M168.417,107.52c-0.001,0.023-0.002,0.047-0.003,0.07C168.415,107.566,168.417,107.543,168.417,107.52z"/>
<path fill="#FFFFFF" d="M168.417,106.841c0.002-0.332,0.007-0.665-0.001-0.996c-0.001-0.041,0-0.082-0.001-0.123
	C168.424,106.094,168.419,106.468,168.417,106.841z"/>
<path fill="#FFFFFF" d="M102.977,105.077c0.024,0.812,0.06,1.611,0.109,2.397c6.654,4.013,35.398,19.289,65.049,3.764
	c0.001-0.007,0.002-0.014,0.003-0.021c0.081-0.642,0.143-1.285,0.19-1.927c-0.045,0.604-0.105,1.209-0.179,1.813
	c-2.283-5.876-13.055,2.65-31.755,1.639c-19.288-1.042-30.048-9.453-33.316-5.481c-0.094-1.56-0.144-3.163-0.131-4.829
	c-0.007,0.861,0.003,1.706,0.026,2.538C102.974,105.006,102.976,105.041,102.977,105.077z"/>
<path fill="#FFFFFF" d="M168.335,109.159c0.037-0.524,0.066-1.047,0.08-1.57c0.001-0.023,0.002-0.047,0.003-0.07
	c0-0.013,0-0.026,0-0.039C168.404,108.04,168.374,108.599,168.335,109.159z"/>
<path fill="#C4C4C4" d="M168.414,105.675c0-0.008,0-0.015-0.001-0.023c0,0.005,0,0.01,0,0.015
	C168.414,105.67,168.414,105.672,168.414,105.675z"/>
<path fill="#C4C4C4" d="M168.328,109.29c0.003-0.044,0.004-0.087,0.007-0.131C168.332,109.203,168.331,109.247,168.328,109.29z"/>
<path fill="#C4C4C4" d="M168.417,106.841c-0.001,0.213,0.006,0.426,0.001,0.64C168.422,107.267,168.415,107.055,168.417,106.841z"/>
<path fill="#C4C4C4" d="M168.414,105.652c-0.017-0.598-0.05-1.193-0.099-1.785c0.049,0.597,0.082,1.198,0.099,1.801
	C168.414,105.662,168.414,105.657,168.414,105.652z"/>
<path fill="#C4C4C4" d="M168.414,105.722c0-0.016,0-0.032,0-0.048c0-0.003,0-0.005,0-0.008
	C168.414,105.685,168.414,105.704,168.414,105.722z"/>
<path fill="#C4C4C4" d="M136.394,112.742c18.7,1.011,29.471-7.515,31.755-1.639c0.074-0.604,0.134-1.209,0.179-1.813
	c0.003-0.044,0.004-0.087,0.007-0.131c0.04-0.56,0.069-1.12,0.082-1.678c0.005-0.214-0.002-0.426-0.001-0.64
	c0.002-0.373,0.008-0.747-0.002-1.119c-0.001-0.018,0-0.037,0-0.055c-0.017-0.603-0.05-1.203-0.099-1.801
	c-28.507,17.659-65.368-1.435-65.368-1.435c-0.013,1.666,0.037,3.269,0.131,4.829C106.347,103.289,117.107,111.7,136.394,112.742z"
	/>
<path fill="#FFFFFF" d="M139.121,140.751c-0.202,0.017-0.405,0.031-0.609,0.045C138.716,140.782,138.919,140.768,139.121,140.751z"
	/>
<path fill="#FFFFFF" d="M137.527,140.846c-0.2,0.008-0.401,0.015-0.603,0.02C137.126,140.861,137.326,140.853,137.527,140.846z"/>
<path fill="#FFFFFF" d="M146.935,139.096c-0.198,0.07-0.397,0.138-0.598,0.204C146.538,139.234,146.737,139.166,146.935,139.096z"/>
<path fill="#FFFFFF" d="M116.007,135.068c-0.116-0.082-0.229-0.167-0.343-0.25C115.778,134.902,115.891,134.986,116.007,135.068z"/>
<path fill="#FFFFFF" d="M120.265,137.546c-0.075-0.035-0.146-0.074-0.221-0.11C120.119,137.472,120.19,137.511,120.265,137.546z"/>
<path fill="#FFFFFF" d="M125.357,139.412c-0.094-0.026-0.19-0.048-0.283-0.075C125.167,139.364,125.264,139.386,125.357,139.412z"/>
<path fill="#FFFFFF" d="M122.84,138.607c-0.156-0.057-0.31-0.114-0.464-0.173C122.53,138.493,122.684,138.551,122.84,138.607z"/>
<path fill="#FFFFFF" d="M118.176,136.45c-0.11-0.063-0.223-0.124-0.332-0.188C117.953,136.327,118.066,136.387,118.176,136.45z"/>
<path fill="#FFFFFF" d="M140.191,140.643c0.156-0.018,0.312-0.035,0.467-0.056c-0.133,0.017-0.268,0.031-0.402,0.047
	C140.233,140.637,140.212,140.641,140.191,140.643z"/>
<path fill="#FFFFFF" d="M149.28,138.161c0.088-0.04,0.175-0.08,0.263-0.12c-0.053,0.025-0.109,0.047-0.162,0.072
	C149.347,138.128,149.314,138.146,149.28,138.161z"/>
<path fill="#FFFFFF" d="M135.307,140.863c0.117,0.003,0.233,0.003,0.349,0.005c-0.021,0-0.042-0.002-0.062-0.003
	C135.498,140.864,135.403,140.866,135.307,140.863z"/>
<path fill="#FFFFFF" d="M155.066,134.711c-0.311,0.236-0.626,0.468-0.947,0.693C154.441,135.178,154.756,134.947,155.066,134.711z"
	/>
<path fill="#FFFFFF" d="M142.007,140.384c0.046-0.008,0.093-0.016,0.139-0.024c-0.029,0.005-0.059,0.009-0.088,0.014
	C142.041,140.376,142.024,140.381,142.007,140.384z"/>
<path fill="#FFFFFF" d="M147.704,138.813c0.187-0.072,0.374-0.144,0.558-0.219c-0.172,0.07-0.346,0.136-0.52,0.203
	C147.729,138.803,147.717,138.809,147.704,138.813z"/>
<path fill="#FFFFFF" d="M144.971,139.715c0.17-0.047,0.337-0.098,0.506-0.148c-0.015,0.004-0.031,0.008-0.046,0.012
	C145.278,139.625,145.126,139.672,144.971,139.715z"/>
<path fill="#FFFFFF" d="M156.708,133.382c-0.001,0-0.001,0-0.002,0.001c-0.409,0.358-0.831,0.704-1.261,1.041
	C155.875,134.086,156.298,133.741,156.708,133.382z"/>
<path fill="#FFFFFF" d="M150.329,137.658c0.156-0.078,0.315-0.152,0.469-0.232c-0.008,0.004-0.016,0.007-0.023,0.011
	C150.629,137.514,150.478,137.584,150.329,137.658z"/>
<path fill="#FFFFFF" d="M127.564,139.948c0.14,0.03,0.277,0.063,0.418,0.091c-0.01-0.002-0.02-0.005-0.03-0.007
	C127.821,140.006,127.694,139.976,127.564,139.948z"/>
<path fill="#FFFFFF" d="M151.898,136.822c0.119-0.069,0.236-0.139,0.354-0.209c-0.027,0.016-0.056,0.031-0.084,0.047
	C152.077,136.713,151.989,136.77,151.898,136.822z"/>
<path fill="#FFFFFF" d="M143.567,140.071c0.067-0.015,0.133-0.032,0.199-0.047c-0.015,0.003-0.03,0.006-0.045,0.009
	C143.67,140.045,143.619,140.059,143.567,140.071z"/>
<path fill="#FFFFFF" d="M151.024,137.303c0.041-0.022,0.082-0.045,0.123-0.068c-0.031,0.016-0.061,0.034-0.092,0.05
	C151.044,137.291,151.034,137.297,151.024,137.303z"/>
<path fill="#FFFFFF" d="M130.458,140.455c0.098,0.013,0.192,0.031,0.29,0.044c-0.065-0.009-0.126-0.022-0.191-0.031
	C130.524,140.463,130.491,140.459,130.458,140.455z"/>
<path fill="#FFFFFF" d="M153.637,135.734c-0.196,0.132-0.393,0.263-0.594,0.391C153.243,135.998,153.44,135.866,153.637,135.734z"/>
<path fill="#FFFFFF" d="M145.431,139.58c0.015-0.004,0.031-0.008,0.046-0.012c0.022-0.007,0.044-0.014,0.066-0.021
	C145.506,139.558,145.468,139.569,145.431,139.58z"/>
<path fill="#FFFFFF" d="M147.672,138.825c0.011-0.004,0.022-0.008,0.032-0.012c0.013-0.005,0.025-0.011,0.038-0.016
	C147.719,138.807,147.695,138.816,147.672,138.825z"/>
<path fill="#FFFFFF" d="M152.168,136.66c0.028-0.016,0.056-0.031,0.084-0.047c0.076-0.045,0.151-0.094,0.227-0.14
	C152.375,136.536,152.272,136.598,152.168,136.66z"/>
<path fill="#FFFFFF" d="M153.922,135.539c0.066-0.045,0.133-0.09,0.198-0.136c0.321-0.225,0.636-0.456,0.947-0.693
	c0.126-0.096,0.254-0.189,0.378-0.287c0.43-0.337,0.852-0.683,1.261-1.041c-1.194,0.487-2.403,0.899-3.62,1.254
	C153.357,134.929,153.632,135.225,153.922,135.539z"/>
<path fill="#FFFFFF" d="M148.979,138.289c0.1-0.044,0.202-0.084,0.301-0.128c0.034-0.015,0.066-0.033,0.1-0.049
	C149.248,138.173,149.113,138.231,148.979,138.289z"/>
<path fill="#FFFFFF" d="M150.775,137.438c0.008-0.004,0.016-0.007,0.023-0.011c0.076-0.04,0.149-0.083,0.225-0.124
	c0.011-0.006,0.021-0.012,0.031-0.018C150.961,137.335,150.87,137.389,150.775,137.438z"/>
<path fill="#FFFFFF" d="M123.914,138.958c0.387,0.126,0.763,0.265,1.16,0.379c0.093,0.027,0.189,0.049,0.283,0.075
	c0.001,0,0.002,0.001,0.004,0.001C124.867,139.276,124.393,139.114,123.914,138.958z"/>
<path fill="#FFFFFF" d="M116.965,135.691c0.294,0.19,0.576,0.392,0.879,0.571c0.109,0.065,0.221,0.125,0.332,0.188
	c0.056,0.032,0.117,0.059,0.173,0.091C117.875,136.273,117.418,135.984,116.965,135.691z"/>
<path fill="#FFFFFF" d="M129.609,140.312c0.285,0.045,0.56,0.102,0.849,0.142c0.033,0.005,0.066,0.008,0.099,0.013
	C130.234,140.424,129.926,140.363,129.609,140.312z"/>
<path fill="#FFFFFF" d="M119.106,136.941c0.313,0.165,0.617,0.341,0.939,0.495c0.074,0.036,0.146,0.075,0.221,0.11
	c0.091,0.043,0.189,0.076,0.28,0.118C120.053,137.438,119.579,137.19,119.106,136.941z"/>
<path fill="#FFFFFF" d="M126.619,139.719c0.316,0.076,0.623,0.161,0.945,0.23c0.13,0.028,0.258,0.058,0.388,0.084
	C127.497,139.94,127.062,139.825,126.619,139.719z"/>
<path fill="#FFFFFF" d="M121.42,138.032c0.319,0.134,0.629,0.278,0.956,0.402c0.154,0.059,0.308,0.116,0.464,0.173
	c0.014,0.005,0.029,0.009,0.043,0.014C122.383,138.44,121.902,138.235,121.42,138.032z"/>
<path fill="#FFFFFF" d="M140.088,140.654c0.034-0.004,0.069-0.006,0.103-0.01c0.022-0.003,0.043-0.006,0.064-0.009
	C140.199,140.641,140.144,140.647,140.088,140.654z"/>
<path fill="#FFFFFF" d="M135.594,140.866c0.021,0,0.042,0.002,0.062,0.003c0.059,0.001,0.117-0.001,0.177,0
	C135.753,140.867,135.674,140.867,135.594,140.866z"/>
<path fill="#FFFFFF" d="M143.722,140.033c0.015-0.003,0.03-0.006,0.045-0.009c0.082-0.019,0.162-0.043,0.245-0.063
	C143.914,139.984,143.819,140.01,143.722,140.033z"/>
<path fill="#FFFFFF" d="M141.721,140.427c0.095-0.016,0.192-0.027,0.286-0.043c0.017-0.003,0.034-0.007,0.051-0.01
	C141.946,140.393,141.833,140.408,141.721,140.427z"/>
<path fill="#FFFFFF" d="M114.99,134.285c0.226,0.177,0.442,0.364,0.674,0.533c0.114,0.084,0.227,0.168,0.343,0.25
	c0.091,0.064,0.19,0.12,0.282,0.183C115.843,134.944,115.414,134.617,114.99,134.285z"/>
<path fill="#FFFFFF" d="M113.91,133.431c0.213,0.186,0.447,0.348,0.666,0.527c0.32-0.18,0.626-0.372,0.929-0.57
	C114.849,133.341,114.31,133.348,113.91,133.431z"/>
<path fill="#FFFFFF" d="M140.255,140.634c0.134-0.016,0.269-0.029,0.402-0.047c0.34-0.045,0.674-0.098,1.008-0.152
	C141.201,140.511,140.731,140.578,140.255,140.634z"/>
<path fill="#FFFFFF" d="M149.38,138.113c0.054-0.024,0.109-0.047,0.162-0.072c0.266-0.123,0.526-0.253,0.787-0.383
	c0.148-0.074,0.299-0.144,0.446-0.221C150.319,137.675,149.853,137.898,149.38,138.113z"/>
<path fill="#FFFFFF" d="M127.952,140.032c0.01,0.002,0.02,0.005,0.03,0.007c0.004,0.001,0.008,0.001,0.012,0.002
	C127.98,140.039,127.966,140.035,127.952,140.032z"/>
<path fill="#FFFFFF" d="M146.041,139.392c0.098-0.031,0.198-0.06,0.295-0.092c0.201-0.066,0.4-0.134,0.598-0.204
	c0.076-0.027,0.15-0.056,0.226-0.083C146.792,139.146,146.419,139.272,146.041,139.392z"/>
<path fill="#FFFFFF" d="M151.055,137.285c0.031-0.016,0.061-0.034,0.092-0.05c0.252-0.136,0.504-0.271,0.751-0.413
	c0.091-0.053,0.179-0.109,0.27-0.162C151.802,136.875,151.432,137.084,151.055,137.285z"/>
<path fill="#FFFFFF" d="M144.21,139.91c0.255-0.064,0.51-0.125,0.761-0.195c0.155-0.043,0.306-0.09,0.46-0.135
	C145.029,139.698,144.622,139.807,144.21,139.91z"/>
<path fill="#FFFFFF" d="M147.742,138.798c0.174-0.067,0.348-0.133,0.52-0.203c0.209-0.085,0.414-0.175,0.619-0.264
	C148.507,138.493,148.127,138.65,147.742,138.798z"/>
<path fill="#FFFFFF" d="M133.659,140.789c0.556,0.038,1.104,0.061,1.648,0.074c0.096,0.002,0.191,0.001,0.287,0.002
	C134.956,140.855,134.313,140.834,133.659,140.789z"/>
<path fill="#FFFFFF" d="M152.696,136.339c0.116-0.071,0.233-0.141,0.347-0.214c0.2-0.128,0.397-0.259,0.594-0.391
	c0.009-0.006,0.018-0.012,0.027-0.019C153.346,135.929,153.023,136.137,152.696,136.339z"/>
<path fill="#FFFFFF" d="M142.058,140.373c0.029-0.005,0.059-0.009,0.088-0.014c0.48-0.086,0.954-0.182,1.422-0.288
	c0.052-0.012,0.103-0.026,0.155-0.038C143.175,140.16,142.621,140.274,142.058,140.373z"/>
<path fill="#FFFFFF" d="M130.557,140.467c0.065,0.009,0.126,0.023,0.191,0.031c0.08,0.01,0.164,0.014,0.244,0.024
	C130.847,140.505,130.701,140.487,130.557,140.467z"/>
<path fill="#FFFFFF" d="M136.269,140.867c0.218,0,0.438,0.003,0.655-0.002c0.202-0.004,0.402-0.012,0.603-0.02
	c0.03-0.001,0.06-0.003,0.091-0.005C137.173,140.859,136.722,140.866,136.269,140.867z"/>
<path fill="#FFFFFF" d="M138.294,140.807c0.072-0.004,0.146-0.006,0.218-0.011c0.204-0.013,0.407-0.028,0.609-0.045
	c0.15-0.013,0.298-0.03,0.447-0.045C139.147,140.747,138.723,140.781,138.294,140.807z"/>
<path fill="#FFFFFF" d="M135.833,140.868c0.146,0.001,0.291-0.001,0.436-0.001c0.453-0.001,0.903-0.008,1.348-0.026
	c0.227-0.009,0.452-0.021,0.677-0.034c0.429-0.026,0.853-0.06,1.274-0.101c0.174-0.017,0.348-0.033,0.52-0.052
	c0.056-0.006,0.112-0.013,0.167-0.019c0.476-0.056,0.946-0.123,1.41-0.199c0.018-0.003,0.037-0.005,0.055-0.008
	c0.112-0.018,0.226-0.034,0.337-0.054c0.563-0.099,1.118-0.214,1.664-0.341c0.097-0.023,0.192-0.048,0.289-0.072
	c0.067-0.016,0.132-0.034,0.199-0.051c0.412-0.103,0.819-0.212,1.221-0.33c0.037-0.011,0.075-0.022,0.112-0.033
	c0.167-0.05,0.333-0.102,0.498-0.155c0.378-0.12,0.751-0.246,1.119-0.379c0.171-0.062,0.342-0.123,0.511-0.188
	c0.024-0.009,0.047-0.018,0.07-0.027c0.385-0.148,0.765-0.304,1.14-0.467c0.032-0.014,0.065-0.027,0.098-0.042
	c0.134-0.059,0.268-0.116,0.401-0.177c0.472-0.215,0.939-0.438,1.395-0.675c0.095-0.049,0.186-0.103,0.28-0.153
	c0.377-0.201,0.748-0.41,1.113-0.625c0.104-0.062,0.207-0.124,0.311-0.187c0.073-0.044,0.145-0.089,0.217-0.134
	c0.327-0.202,0.651-0.41,0.968-0.624c0.087-0.058,0.172-0.118,0.258-0.177c-0.29-0.313-0.565-0.61-0.836-0.902
	c-15.095,4.4-31.51-0.815-37.581-1.249c-0.302,0.198-0.609,0.39-0.929,0.57c0.136,0.111,0.275,0.219,0.414,0.327
	c0.424,0.332,0.853,0.659,1.299,0.966c0.221,0.152,0.451,0.294,0.677,0.44c0.453,0.293,0.909,0.582,1.384,0.851
	c0.247,0.14,0.505,0.266,0.757,0.399c0.473,0.249,0.947,0.497,1.44,0.723c0.285,0.13,0.583,0.245,0.874,0.368
	c0.482,0.203,0.963,0.408,1.463,0.589c0.336,0.122,0.687,0.225,1.031,0.337c0.479,0.156,0.952,0.318,1.446,0.455
	c0.41,0.114,0.838,0.205,1.258,0.306c0.443,0.106,0.878,0.222,1.333,0.313c0.014,0.003,0.027,0.006,0.041,0.009
	c0.526,0.105,1.073,0.185,1.615,0.271c0.317,0.05,0.626,0.111,0.948,0.155c0.144,0.02,0.29,0.037,0.435,0.056
	c0.872,0.11,1.757,0.204,2.667,0.266c0.654,0.045,1.297,0.066,1.935,0.077C135.674,140.867,135.753,140.867,135.833,140.868z"/>
<path fill="#FFFFFF" d="M90.323,134.186l-0.391-0.15c-0.144,1.422-0.304,3.339-0.474,5.64l0.81-0.839
	C90.285,137.284,90.303,135.733,90.323,134.186z"/>
<path fill="#FFFFFF" d="M174.078,182.809c1.249-9.354,2.412-18.395,3.261-25.732c-0.11-0.083-0.208-0.165-0.319-0.249
	c0.342-3.31,0.569-5.996,0.649-7.833c0.16,0.111,0.332,0.232,0.505,0.354c0.475-4.848,0.667-8.122,0.438-8.991l-0.633,0.169
	c-1.769,14.336-3.771,29.066-5.771,43.036C172.839,183.325,173.455,183.06,174.078,182.809z"/>
<path fill="#FFFFFF" d="M90.123,157.257l-1.958,3.151c-0.253,4.54-0.508,9.344-0.757,14.206c0.876,0.564,1.762,1.115,2.658,1.651
	C90.074,170.068,90.09,163.695,90.123,157.257z"/>
<path fill="#FFFFFF" d="M90.123,157.257c0.031-6.114,0.077-12.285,0.145-18.42l-0.81,0.839c-0.39,5.267-0.838,12.571-1.293,20.732
	L90.123,157.257z"/>
<g>
	<path fill="#FFFFFF" d="M83.847,151.682c0.877,2.297,1.497,4.7,1.817,7.133c0.071,0.206,0.138,0.411,0.213,0.619l-0.142-0.033
		c0.174,1.565,0.223,3.14,0.135,4.703l2.296-3.695c0.455-8.161,0.903-15.464,1.293-20.732l-6.128,6.352
		C83.363,147.793,83.518,149.676,83.847,151.682z"/>
	<path fill="#FFFFFF" d="M126.265,157.133l-2.866-0.348l0.734-8.633l1.337,0.058l0.041-0.516l-35.188-13.507
		c-0.02,1.547-0.038,3.098-0.055,4.651c-0.068,6.136-0.114,12.306-0.145,18.42c-0.033,6.438-0.049,12.811-0.057,19.008
		c8.79,5.257,18.499,9.134,28.833,11.325l0.164-0.68l3.379-13.97l-0.002-0.001l2.602-10.752l0.001,0l0.598-2.471l0,0
		L126.265,157.133z"/>
</g>
<g>
	<path fill="#FFFFFF" d="M145.032,149.305l-0.647,10.03l-1.19-0.145l0.218,3.122l4.999,26.843
		c8.294-0.847,16.276-2.746,23.797-5.591c2-13.97,4.001-28.7,5.771-43.036L145.032,149.305z"/>
	<path fill="#FFFFFF" d="M178.175,149.35c-0.221,2.261-0.504,4.863-0.836,7.727c7.3,5.549,12.148,10.818,15.059,15.881
		c2.324-1.602,4.572-3.303,6.74-5.1C191.222,159.015,182.553,152.433,178.175,149.35z"/>
</g>
<path fill="#FFFFFF" d="M177.02,156.828c0.111,0.083,0.209,0.165,0.319,0.249c0.331-2.864,0.614-5.466,0.836-7.727
	c-0.174-0.122-0.346-0.243-0.505-0.354C177.59,150.832,177.362,153.519,177.02,156.828z"/>
<path fill="#FFFFFF" d="M146.25,189.348c0.723-0.057,1.444-0.12,2.162-0.194l-4.999-26.843l-0.218-3.122l-1.541-0.187
	L146.25,189.348z"/>
<path opacity="0.2" fill="#010101" d="M146.25,189.348c0.723-0.057,1.444-0.12,2.162-0.194l-4.999-26.843l-0.218-3.122l-1.541-0.187
	L146.25,189.348z"/>
<path fill="#4D4D4D" d="M135.731,183.061l-13.288-10.121l-3.379,13.97l1.221-5.045l9.229,7.353c0.178,0.017,0.355,0.039,0.534,0.055
	c0.004,0,0.008,0.001,0.012,0.001c1.413,0.127,2.834,0.225,4.263,0.291c1.44,0.067,2.889,0.102,4.346,0.102
	c1.849,0,3.681-0.071,5.504-0.176L135.731,183.061z"/>
<polygon fill="#4D4D4D" points="141.653,159.003 141.653,159.003 142.063,161.712 140.399,161.51 125.641,159.716 125.043,162.187 
	137.85,173.275 144.716,179.219 146.249,189.348 146.25,189.348 "/>
<rect x="124.624" y="158.424" transform="matrix(0.235 -0.972 0.972 0.235 -57.6381 243.6105)" fill="#FFFFFF" width="2.658" height="0"/>
<rect x="124.624" y="158.424" transform="matrix(0.235 -0.972 0.972 0.235 -57.6381 243.6105)" opacity="0.36" fill="#010101" width="2.658" height="0"/>
<polygon fill="#4D4D4D" points="140.96,158.918 126.265,157.133 125.641,159.716 140.399,161.51 "/>
<polygon fill="#4D4D4D" points="141.653,159.003 140.96,158.918 140.399,161.51 142.063,161.712 "/>
<polygon opacity="0.36" fill="#010101" points="141.653,159.003 140.96,158.918 126.265,157.133 125.641,159.716 140.399,161.51 
	142.063,161.712 "/>
<rect x="141.597" y="158.265" fill="#4D4D4D" width="0.001" height="0.742"/>
<polygon fill="#4D4D4D" points="141.371,157.143 141.541,158.269 141.542,158.269 141.36,157.069 141.345,157.142 "/>
<rect x="126.33" y="156.588" fill="#4D4D4D" width="0.001" height="0.553"/>
<polygon fill="#4D4D4D" points="143.258,148.974 143.376,147.147 125.607,146.493 125.511,147.693 125.47,148.208 124.133,148.151 
	123.398,156.784 126.265,157.133 126.395,156.595 126.395,156.595 126.265,157.133 140.96,158.918 141.653,159.003 141.541,158.269 
	141.371,157.143 141.345,157.142 141.36,157.069 141.542,158.269 141.653,159.003 143.195,159.19 144.385,159.335 145.032,149.305 
	145.048,149.051 "/>
<rect x="118.728" y="187.725" transform="matrix(-0.2351 0.972 -0.972 -0.2351 329.278 116.3317)" fill="#696969" width="0.278" height="0"/>
<rect x="118.211" y="167.562" transform="matrix(0.2352 -0.972 0.972 0.2352 -68.2233 248.4265)" fill="#696969" width="11.062" height="0.002"/>
<polygon fill="#696969" points="119.064,186.91 118.899,187.59 118.899,187.59 "/>
<path fill="#696969" d="M127.75,189.037c0.006,0.001,0.012,0.001,0.018,0.002c0.58,0.066,1.162,0.123,1.745,0.178l-9.229-7.353
	l-1.221,5.045l-0.164,0.68C121.803,188.206,124.755,188.694,127.75,189.037z"/>
<path fill="#696969" d="M144.716,179.219l-6.865-5.944l-12.807-11.088l-2.601,10.753l13.288,10.121l8.441,6.429
	c0.695-0.04,1.387-0.088,2.077-0.142L144.716,179.219z"/>
<path fill="#282828" d="M110.487,85.607c-0.034,3.061,2.419,5.569,5.478,5.603c3.058,0.035,5.568-2.415,5.603-5.478
	c0.034-3.06-2.419-5.567-5.477-5.603C113.032,80.095,110.523,82.545,110.487,85.607z M114.146,85.944
	c-1.174-0.013-2.116-0.976-2.102-2.15c0.013-1.174,0.976-2.116,2.15-2.102c1.174,0.013,2.115,0.978,2.102,2.15
	C116.284,85.017,115.32,85.958,114.146,85.944z"/>
<circle fill="#282828" cx="114.17" cy="83.818" r="2.126"/>
<circle opacity="0.3" fill="#FFFFFF" cx="114.17" cy="83.818" r="2.126"/>
<path fill="#282828" d="M151.954,88.718c-0.034,3.062,2.419,5.569,5.478,5.604c3.058,0.035,5.568-2.417,5.603-5.477
	c0.034-3.061-2.418-5.569-5.477-5.604S151.99,85.658,151.954,88.718z M155.613,89.057c-1.174-0.014-2.116-0.976-2.102-2.152
	c0.013-1.173,0.977-2.115,2.15-2.102c1.174,0.014,2.115,0.978,2.102,2.151C157.751,88.13,156.787,89.07,155.613,89.057z"/>
<circle fill="#282828" cx="155.638" cy="86.93" r="2.127"/>
<circle opacity="0.3" fill="#FFFFFF" cx="155.638" cy="86.93" r="2.127"/>
<path fill="#282828" d="M181.706,56.182l-0.039,0.406c0.367-0.112,0.746-0.223,1.103-0.336
	C182.415,56.228,182.061,56.205,181.706,56.182z"/>
<path fill="#282828" d="M183.653,44.489l-0.156-0.048c34.431-16.248,15.029-17.512-18.816-12.791
	c14.797-12.576-1.668-10.665-28.069-2.831c20.119-27.936-19.381-0.311-36.87,12.451C86.278,30.42,77.741,53.746,84.227,82.075
	c1.966-1.22,4.599-1.638,7.727-0.565c0.33-5.456,0.718-10.449,1.172-14.83c0.406-3.9,0.836-7.333,1.291-10.246
	c1.226,0.878,2.56,1.674,3.993,2.391c20.545,10.277,61.057,4.529,83.256-2.237l0.039-0.406c0.355,0.023,0.709,0.047,1.064,0.07
	c0.937,3.918,1.256,10.109,1.104,17.907c-0.079,4.064-0.286,8.615-0.601,13.55c2.218-0.63,4.161-0.528,5.777,0.062
	c6.49-19.623,6.554-30.334,3.396-34.665C209.898,46.26,207.837,38.896,183.653,44.489z"/>
<path fill="#282828" d="M106.609,77.913c4.892-1.148,12.425-2.461,16.496-3.011c4.068-0.55,3.57-8.073-2.336-7.142
	c-5.902,0.931-17.315,3.812-17.315,3.812C98.957,73.336,101.718,79.06,106.609,77.913z"/>
<path fill="#282828" d="M151.73,77.278c4,0.928,11.379,2.934,16.143,4.533c4.763,1.598,8.044-3.845,3.732-6.019
	c0,0-11.097-3.932-16.887-5.406C148.925,68.909,147.728,76.352,151.73,77.278z"/>
<g>
	<defs>
		<path id="SVGID_1_" d="M224.573,54.562c-0.177-0.376-0.353-0.752-0.534-1.126c-0.141-0.29-0.287-0.578-0.431-0.867
			c-0.192-0.385-0.383-0.771-0.581-1.154c-0.137-0.266-0.279-0.529-0.419-0.793c-0.211-0.4-0.421-0.8-0.638-1.197
			c-0.128-0.234-0.261-0.466-0.391-0.699c-0.235-0.422-0.469-0.844-0.71-1.261c-0.104-0.179-0.211-0.356-0.316-0.534
			c-0.275-0.468-0.549-0.937-0.832-1.4c-0.021-0.034-0.042-0.067-0.063-0.101c-1.504-2.459-3.116-4.845-4.831-7.149
			c-0.004-0.006-0.008-0.012-0.013-0.017c-0.384-0.515-0.775-1.025-1.168-1.532c-0.06-0.077-0.118-0.155-0.177-0.231
			c-0.37-0.474-0.747-0.942-1.126-1.408c-0.087-0.107-0.173-0.216-0.26-0.323c-0.366-0.447-0.738-0.888-1.112-1.327
			c-0.105-0.123-0.208-0.247-0.313-0.37c-0.369-0.43-0.744-0.854-1.121-1.277c-0.113-0.127-0.225-0.256-0.339-0.382
			c-0.376-0.417-0.757-0.83-1.14-1.24c-0.119-0.128-0.238-0.257-0.358-0.384c-0.384-0.407-0.773-0.81-1.164-1.21
			c-0.123-0.125-0.244-0.252-0.367-0.376c-0.395-0.4-0.794-0.795-1.196-1.188c-0.123-0.12-0.245-0.24-0.368-0.36
			c-0.408-0.394-0.82-0.784-1.234-1.171c-0.121-0.113-0.242-0.226-0.363-0.338c-0.421-0.389-0.846-0.773-1.275-1.155
			c-0.119-0.106-0.237-0.211-0.356-0.316c-0.435-0.384-0.874-0.763-1.316-1.139c-0.114-0.097-0.229-0.194-0.344-0.291
			c-0.452-0.381-0.908-0.757-1.368-1.13c-0.105-0.085-0.211-0.17-0.317-0.255c-0.472-0.379-0.948-0.754-1.427-1.125
			c-0.094-0.073-0.189-0.145-0.284-0.218c-0.495-0.379-0.992-0.754-1.494-1.123c-0.078-0.058-0.157-0.115-0.236-0.172
			c-0.521-0.381-1.046-0.758-1.575-1.128c-0.057-0.04-0.115-0.079-0.172-0.119c-0.552-0.385-1.107-0.764-1.668-1.137
			c-0.031-0.021-0.063-0.041-0.094-0.062c-12.148-8.065-26.26-13.404-41.467-15.147c-0.006-0.001-0.012-0.001-0.018-0.002
			c-0.757-0.087-1.517-0.164-2.279-0.233c-0.004,0-0.008-0.001-0.012-0.001C144.47,0.138,141.601,0,138.698,0
			C91.483,0,52.332,34.507,45.076,79.677l0,0c0,0,0,0.001,0,0.001c-0.197,1.225-0.371,2.458-0.52,3.698
			c-0.003,0.025-0.006,0.05-0.009,0.074c-0.145,1.209-0.268,2.425-0.367,3.648c-0.003,0.034-0.006,0.068-0.009,0.102
			c-0.092,1.157-0.161,2.32-0.211,3.488c-0.01,0.221-0.017,0.441-0.025,0.662c-0.042,1.156-0.07,2.315-0.07,3.482
			c0,52.375,42.458,94.833,94.833,94.833"/>
	</defs>
	<defs>
		<path id="SVGID_2_" d="M233.501,92.434c-0.007-0.267-0.02-0.531-0.029-0.797c-0.018-0.53-0.034-1.061-0.06-1.588
			c-0.016-0.316-0.039-0.631-0.058-0.946c-0.028-0.474-0.055-0.949-0.09-1.422c-0.025-0.339-0.057-0.675-0.086-1.013
			c-0.038-0.447-0.075-0.895-0.119-1.341c-0.035-0.348-0.076-0.695-0.114-1.042c-0.048-0.432-0.094-0.864-0.148-1.294
			c-0.044-0.354-0.094-0.707-0.142-1.06c-0.057-0.42-0.113-0.84-0.176-1.258c-0.054-0.358-0.113-0.715-0.17-1.072
			c-0.066-0.409-0.132-0.818-0.203-1.226c-0.063-0.361-0.131-0.721-0.199-1.081c-0.075-0.401-0.15-0.801-0.23-1.2
			c-0.073-0.362-0.149-0.723-0.226-1.083c-0.084-0.393-0.168-0.786-0.256-1.177c-0.082-0.362-0.167-0.723-0.253-1.083
			c-0.092-0.386-0.185-0.772-0.282-1.156c-0.091-0.363-0.186-0.725-0.282-1.086c-0.1-0.377-0.201-0.754-0.305-1.129
			c-0.101-0.364-0.205-0.727-0.31-1.089c-0.107-0.369-0.217-0.738-0.329-1.105c-0.111-0.365-0.224-0.728-0.339-1.091
			c-0.115-0.36-0.231-0.72-0.35-1.078c-0.121-0.365-0.243-0.73-0.368-1.093c-0.121-0.352-0.246-0.703-0.371-1.054
			c-0.131-0.366-0.263-0.731-0.398-1.095c-0.127-0.342-0.258-0.682-0.389-1.022c-0.142-0.368-0.284-0.736-0.431-1.102
			c-0.132-0.331-0.268-0.661-0.404-0.99c-0.153-0.37-0.306-0.74-0.463-1.108c-0.137-0.32-0.278-0.638-0.418-0.956"/>
	</defs>
	<clipPath id="SVGID_3_">
		<use xlink:href="#SVGID_1_"  overflow="visible"/>
	</clipPath>
	<clipPath id="SVGID_4_" clip-path="url(#SVGID_3_)">
		<use xlink:href="#SVGID_2_"  overflow="visible"/>
	</clipPath>
	<g clip-path="url(#SVGID_4_)">
		<g>
			<polygon fill="#FFFFFF" points="91.264,137.805 66.492,163.479 75.932,180.093 96.259,147.384 			"/>
			<g>
				<path fill="#FDCD9D" d="M23.205,171.302c0,0,1.557,26.015,41.285,15.984c37.835-9.556,18.915-57.622-5.822-52.829
					L23.205,171.302z"/>
				<path opacity="0.1" fill="#010101" d="M70.934,167.428c-3.445-4.312-22.093-4.843-39.863-4.298l-7.866,8.172
					c0,0,1.769,10.051,12.109,15.659c4.125-0.88,13.165-3.604,13.069-10.583C61.184,179.058,77.812,176.047,70.934,167.428z"/>
				<g>
					<path fill="#424242" d="M72.232,166.624c0.24,2.812-1.845,5.29-4.657,5.53l-44.149,3.779c-2.812,0.242-5.289-1.844-5.529-4.658
						L10.831,88.75c-0.237-2.815,1.845-5.291,4.657-5.531L59.64,79.44c2.811-0.242,5.29,1.846,5.532,4.657L72.232,166.624z"/>
					<path fill="#707070" d="M49.869,165.117c-0.243-2.813-2.715-4.897-5.53-4.656c-2.816,0.24-4.897,2.716-4.66,5.53
						c0.24,2.814,2.715,4.898,5.53,4.657C48.024,170.406,50.111,167.933,49.869,165.117z"/>
					<path fill="#424242" d="M48.004,165.277c-0.15-1.784-1.719-3.105-3.505-2.951c-1.784,0.152-3.106,1.721-2.951,3.504
						c0.149,1.785,1.72,3.107,3.503,2.955C46.836,168.631,48.158,167.061,48.004,165.277z"/>
					<path fill="#B9E5F8" d="M67.367,154.368c0.103,1.221-0.8,2.293-2.02,2.399L23.01,160.39c-1.219,0.104-2.296-0.799-2.4-2.021
						L15.252,95.78c-0.104-1.221,0.801-2.293,2.022-2.397l42.336-3.623c1.22-0.105,2.295,0.799,2.4,2.018L67.367,154.368z"/>
					<path fill="#707070" d="M42.146,84.871c0.058,0.659-0.432,1.235-1.089,1.291l-6.113,0.523
						c-0.656,0.056-1.235-0.433-1.291-1.088l0,0c-0.054-0.656,0.432-1.234,1.089-1.287l6.112-0.526
						C41.513,83.73,42.09,84.214,42.146,84.871L42.146,84.871z"/>
					<path opacity="0.2" fill="#FFFFFF" d="M63.576,110.093l-1.565-18.316c-0.105-1.219-1.18-2.123-2.4-2.018l-42.336,3.623
						c-1.221,0.104-2.126,1.176-2.022,2.397l3.761,43.935C28.077,133.592,47.346,120.634,63.576,110.093z"/>
				</g>
				<path opacity="0.1" fill="#010101" d="M41.874,158.775c-0.488-4.876-3.531-9.552-8.118-9.951
					c10.016-20.429-13.002-17.038-13.002-17.038l7.151,28.186L41.874,158.775z"/>
				<path fill="#FDCD9D" d="M17.514,171.988l16.506-4.948c4.976-1.923,7.592-16.002-0.726-17.403
					c-8.314-1.403-22.327,4.283-25.243,5.527C5.14,156.406,0.029,169.748,17.514,171.988z"/>
				<path fill="#FDCD9D" d="M23.796,186.158c6.443,0.974,15.42,0.268,15.42,0.268c4.767-0.283,10.783-11.491,4.067-14.925
					c-6.72-3.431-20.207-2.407-23.027-2.141C17.436,169.63,9.257,183.958,23.796,186.158z"/>
				<path fill="#FDCD9D" d="M11.822,154.079l15.702-4.778c4.729-1.867,7.226-15.835-0.679-17.301
					c-7.907-1.465-21.294,3.596-24.007,5.274C0.123,138.954-4.805,151.7,11.822,154.079z"/>
				<path fill="#FDCD9D" d="M85.876,159.434c-8.952-25.043,10.215-34.716-10.785-36.793c-17.048-1.685-9.572,28.798-2.314,33.729
					L85.876,159.434z"/>
			</g>
			<path fill="#282828" d="M182.052,52.582c11.202-6.287,19.21,2.859,4.228,43.059c-12.334,33.092-7.651-7.444-7.651-7.444
				L182.052,52.582z"/>
			<g>
				<g>
					<path fill="#FDCD9D" d="M180.999,88.56c15.586-7.453,20.309,19.987-0.862,11.492L180.999,88.56z"/>
					<path fill="#BD7E50" d="M183.266,93.883c7.217-2.7,6.869,6.162-0.435,3.2L183.266,93.883z"/>
				</g>
				
					<ellipse transform="matrix(0.9596 0.2815 -0.2815 0.9596 33.0752 -49.4854)" opacity="0.3" fill="#FFFFFF" cx="188.791" cy="90.388" rx="2.576" ry="1.496"/>
			</g>
			<path fill="#282828" d="M94.638,108.56c-21.646-37.41-12.466-81.449,5.105-67.29L94.638,108.56z"/>
			<g>
				<g>
					<path fill="#FDCD9D" d="M93.908,82.33c-15.36-7.91-20.893,19.382,0.522,11.513L93.908,82.33z"/>
					<path fill="#BD7E50" d="M91.482,87.584c-7.135-2.91-7.048,5.957,0.342,3.211L91.482,87.584z"/>
				</g>
				
					<ellipse transform="matrix(0.9785 -0.2064 0.2064 0.9785 -15.5205 19.5876)" opacity="0.3" fill="#FFFFFF" cx="86.138" cy="84.195" rx="2.576" ry="1.495"/>
			</g>
			<path fill="#FDCD9D" d="M89.455,243.887c1.482,1.685-0.22,6.501,3.414,8.635c11.601,6.82,32.398,14.209,51.111,11.159
				c4.895-0.797,9.646-2.311,14.053-4.731c0.892-0.492,1.772-1.022,2.639-1.59c0.223-0.146,22.197-131.294,23.203-183.2
				c0.152-7.799-0.167-13.989-1.104-17.907c-4.829-0.316-9.658-0.634-14.481-0.951c-0.817-0.051-1.633-0.105-2.45-0.16
				c-16.101-1.058-32.204-2.114-48.307-3.17c-1.541-0.1-3.086-0.201-4.628-0.306c-5.781-0.378-11.565-0.756-17.347-1.137
				c-0.897,3.58-1.7,9.144-2.43,16.151C88.199,114.163,91.152,233.08,89.455,243.887z"/>
			<g>
				<path fill="#42140E" d="M102.947,102.432c0,0,36.86,19.093,65.368,1.435c1.486,17.821-11.165,38.528-34.655,36.923
					C113.608,139.421,102.759,126.483,102.947,102.432z"/>
				<path fill="#CD4B27" d="M114.561,133.966c4.906,4.004,11.303,6.291,19.098,6.823c8.085,0.553,14.886-1.539,20.267-5.246
					c-5.599-6.047-7.407-8.14-18.705-7.806C120.334,128.176,118.391,131.812,114.561,133.966z"/>
				<path fill="#FFFFFF" d="M102.947,102.432c-0.013,1.741,0.038,3.417,0.139,5.042c6.654,4.013,35.398,19.289,65.05,3.764
					c0.311-2.468,0.38-4.947,0.179-7.372C139.807,121.525,102.947,102.432,102.947,102.432z"/>
				<path fill="#C4C4C4" d="M102.947,102.432c-0.013,1.666,0.037,3.269,0.131,4.829c3.269-3.972,14.029,4.439,33.316,5.481
					c18.7,1.011,29.472-7.515,31.755-1.639c0.298-2.422,0.363-4.855,0.165-7.237C139.807,121.525,102.947,102.432,102.947,102.432z"
					/>
				<path fill="#FFFFFF" d="M113.91,133.431c4.985,4.341,11.609,6.803,19.749,7.358c9.548,0.653,17.305-2.381,23.049-7.407
					C139.108,140.57,118.308,132.517,113.91,133.431z"/>
			</g>
			<path fill="#FFFFFF" d="M89.933,134.036c-1.596,15.756-5.075,91.547-4.636,92.289l81.364,11.548
				c-0.052-3.09,13.308-92.371,11.952-97.514l-42.625,11.355L89.933,134.036z"/>
			<path fill="#FFFFFF" d="M177.669,148.995c-0.08,1.836-0.307,4.523-0.649,7.833c29.127,21.952,19.918,39.515,3.777,57.312
				c0,0,7.72,21.762,11.071,27.994C247.481,201.733,190.339,157.81,177.669,148.995z"/>
			<g>
				<polygon opacity="0.2" fill="#010101" points="129.848,210.223 135.231,219.55 150.973,202.905 143.413,162.312 
					142.635,151.185 				"/>
				<polygon fill="#4D4D4D" points="126.576,155.85 116.352,198.125 131.502,216.821 147.95,200.57 141.257,156.387 				"/>
				<polygon fill="#4D4D4D" points="125.607,146.493 124.848,155.963 142.65,158.423 143.376,147.147 				"/>
				<polygon opacity="0.36" fill="#010101" points="125.64,159.716 142.063,161.712 141.371,157.143 126.395,156.595 				"/>
				<polygon fill="#4D4D4D" points="124.133,148.151 123.398,156.784 144.385,159.335 145.048,149.051 				"/>
				<path fill="#696969" d="M144.716,179.219l-19.673-17.032l-2.602,10.752l24.104,18.359L144.716,179.219z M120.284,181.865
					l-1.45,5.995l21.666,20.07l5.582-5.512L120.284,181.865z"/>
			</g>
			<g>
				<circle fill="#282828" cx="116.027" cy="85.669" r="5.541"/>
				<circle opacity="0.3" fill="#FFFFFF" cx="114.17" cy="83.818" r="2.126"/>
			</g>
			<g>
				<circle fill="#282828" cx="157.495" cy="88.781" r="5.541"/>
				<circle opacity="0.3" fill="#FFFFFF" cx="155.638" cy="86.93" r="2.126"/>
			</g>
			<path fill="#282828" d="M183.653,44.489l-0.156-0.048c34.431-16.248,15.029-17.512-18.816-12.791
				c14.796-12.576-1.668-10.665-28.069-2.831c20.119-27.936-19.381-0.311-36.87,12.451l-6.764,14.072
				c18.127,15.11,65.741,8.482,89.791,0.909C210.022,48.902,211.647,38.015,183.653,44.489z"/>
			<path fill="#282828" d="M103.454,71.572c-4.497,1.764-1.736,7.489,3.155,6.341c4.892-1.148,12.425-2.461,16.496-3.011
				c4.068-0.55,3.57-8.073-2.336-7.142C114.867,68.69,103.454,71.572,103.454,71.572z"/>
			<path fill="#282828" d="M171.605,75.791c4.312,2.174,1.031,7.618-3.732,6.02c-4.765-1.598-12.144-3.605-16.143-4.533
				c-4.002-0.926-2.805-8.369,2.988-6.893C160.508,71.859,171.605,75.791,171.605,75.791z"/>
		</g>
		<text transform="matrix(0.9958 -0.0918 0.0918 0.9958 21.4116 105.0245)"><tspan x="0" y="0" font-family="'Lato-Bold'" font-size="5.5569">you are the </tspan><tspan x="-2.065" y="10.912" font-family="'Lato-Black'" font-size="9.0931">winner!</tspan></text>
	</g>
</g>
<text transform="matrix(0.9958 -0.0918 0.0918 0.9958 21.4123 105.0239)"><tspan x="0" y="0" font-family="'Lato-Bold'" font-size="5.5569">you are the </tspan><tspan x="-2.065" y="10.912" font-family="'Lato-Black'" font-size="9.0931">winner!</tspan></text>
<path fill="#DCDCDD" d="M138.668,0C91.095,0,51.707,35.03,44.883,80.703L59.64,79.44c2.811-0.242,5.29,1.846,5.532,4.657
	l3.427,40.056c1.584-1.192,3.706-1.788,6.493-1.513c16.741,1.656,7.956,8.139,8.239,23.387l6.128-6.352
	c0.17-2.301,0.33-4.218,0.474-5.64l0.391,0.15c0.145-11.237,0.37-22.261,0.714-32.49c-1.017-2.147-1.937-4.302-2.769-6.454
	c-9.817,0.568-9.753-9.621-4.04-13.167C77.741,53.746,86.278,30.42,99.743,41.27c17.489-12.762,56.989-40.386,36.87-12.451
	c26.401-7.835,42.865-9.746,28.069,2.831c33.844-4.72,53.247-3.457,18.816,12.791l0.156,0.048
	c24.184-5.593,26.245,1.771,8.792,8.617c3.158,4.331,3.094,15.042-3.396,34.665c7.668,2.801,7.939,16.426-5.007,13.516
	c-0.852,1.996-1.595,3.528-2.242,4.663c-1.016,10.785-2.336,22.538-3.821,34.577l0.633-0.169c0.229,0.869,0.037,4.143-0.438,8.991
	c4.378,3.083,13.047,9.665,20.963,18.509c17.296-14.341,29.429-34.693,33.152-57.868l0-0.001c0.197-1.225,0.371-2.458,0.52-3.698
	c0.003-0.025,0.006-0.05,0.009-0.074c0.145-1.209,0.268-2.425,0.367-3.648c0.003-0.034,0.006-0.068,0.009-0.102
	c0.092-1.157,0.161-2.32,0.211-3.488c0.01-0.221,0.017-0.441,0.025-0.662c0.042-1.156,0.07-2.315,0.07-3.482
	C233.501,42.458,191.043,0,138.668,0z"/>
<g>
	
		<rect x="31.858" y="129.307" transform="matrix(0.9968 -0.0802 0.0802 0.9968 -11.1379 3.9665)" fill="#EE5C51" width="23.905" height="22.672"/>
	<g>
		<defs>
			
				<rect id="SVGID_5_" x="31.858" y="129.307" transform="matrix(0.9968 -0.0802 0.0802 0.9968 -11.1379 3.9665)" width="23.905" height="22.672"/>
		</defs>
		<clipPath id="SVGID_6_">
			<use xlink:href="#SVGID_5_"  overflow="visible"/>
		</clipPath>
		<g opacity="0.45" clip-path="url(#SVGID_6_)">
			<g>
				<polygon fill="#FCEED1" points="54.112,123.966 47.219,132.064 47.128,132.172 34.066,147.519 33.975,147.626 28.76,153.754 
					28.915,153.885 34.13,147.758 34.221,147.65 47.283,132.304 47.374,132.196 54.267,124.097 				"/>
				<polygon fill="#FCEED1" points="44.128,129.434 44.037,129.541 30.976,144.888 30.884,144.996 25.669,151.123 25.824,151.255 
					31.039,145.127 31.13,145.02 44.192,129.673 44.283,129.566 51.176,121.466 51.021,121.335 				"/>
				<polygon fill="#FCEED1" points="41.038,126.803 40.946,126.911 27.885,142.258 27.794,142.365 22.579,148.493 22.733,148.624 
					27.948,142.497 28.04,142.39 41.101,127.042 41.192,126.935 48.085,118.836 47.931,118.704 				"/>
				<polygon fill="#FCEED1" points="37.947,124.173 37.855,124.28 24.794,139.627 24.703,139.735 19.488,145.862 19.642,145.994 
					24.857,139.866 24.949,139.759 38.01,124.412 38.102,124.305 44.994,116.206 44.84,116.074 				"/>
				<polygon fill="#FCEED1" points="45.674,130.749 45.582,130.857 32.521,146.204 32.43,146.311 27.215,152.439 27.37,152.57 
					32.584,146.443 32.676,146.335 45.737,130.988 45.829,130.881 52.721,122.782 52.567,122.65 				"/>
				<polygon fill="#FCEED1" points="42.583,128.119 42.492,128.226 29.43,143.573 29.339,143.68 24.124,149.808 24.279,149.94 
					29.494,143.812 29.585,143.705 42.646,128.358 42.738,128.25 49.63,120.151 49.476,120.02 				"/>
				<polygon fill="#FCEED1" points="39.492,125.488 39.401,125.596 26.339,140.943 26.248,141.05 21.033,147.177 21.188,147.309 
					26.403,141.182 26.494,141.074 39.556,125.727 39.647,125.62 46.54,117.521 46.385,117.389 				"/>
				<polygon fill="#FCEED1" points="36.401,122.858 36.31,122.965 23.249,138.312 23.157,138.42 17.942,144.547 18.097,144.679 
					23.312,138.551 23.403,138.444 36.465,123.097 36.556,122.989 43.449,114.89 43.294,114.759 				"/>
				<polygon fill="#FCEED1" points="56.492,139.956 56.401,140.064 43.339,155.411 43.248,155.518 38.033,161.646 38.188,161.777 
					43.403,155.65 43.494,155.542 56.556,140.195 56.647,140.088 63.54,131.989 63.385,131.857 				"/>
				<polygon fill="#FCEED1" points="53.401,137.326 53.31,137.433 40.248,152.78 40.157,152.888 34.942,159.015 35.097,159.147 
					40.312,153.019 40.403,152.912 53.465,137.565 53.556,137.458 60.449,129.359 60.294,129.227 				"/>
				<polygon fill="#FCEED1" points="50.31,134.695 50.219,134.802 37.157,150.15 37.066,150.257 31.851,156.384 32.006,156.516 
					37.221,150.389 37.312,150.281 50.374,134.934 50.465,134.827 57.358,126.728 57.203,126.596 				"/>
				<polygon fill="#FCEED1" points="58.038,141.272 57.946,141.379 44.885,156.726 44.793,156.833 39.578,162.961 39.733,163.092 
					44.948,156.965 45.039,156.857 58.101,141.511 58.192,141.403 65.085,133.304 64.93,133.173 				"/>
				<polygon fill="#FCEED1" points="54.947,138.641 54.856,138.748 41.794,154.095 41.702,154.203 36.488,160.33 36.642,160.462 
					41.857,154.335 41.949,154.227 55.01,138.88 55.102,138.773 61.994,130.674 61.84,130.542 				"/>
				<polygon fill="#FCEED1" points="51.856,136.01 51.765,136.118 38.703,151.465 38.612,151.572 33.397,157.7 33.551,157.831 
					38.766,151.704 38.858,151.597 51.919,136.25 52.01,136.142 58.903,128.043 58.748,127.911 				"/>
				<polygon fill="#FCEED1" points="48.765,133.38 48.673,133.487 35.612,148.834 35.521,148.942 30.306,155.069 30.461,155.201 
					35.675,149.073 35.767,148.966 48.828,133.619 48.919,133.512 55.813,125.413 55.658,125.281 				"/>
				<polygon fill="#FCEED1" points="59.491,142.694 46.43,158.041 46.339,158.149 41.124,164.276 41.279,164.408 46.493,158.28 
					46.585,158.173 59.646,142.826 59.738,142.718 66.63,134.619 66.476,134.488 59.583,142.587 				"/>
				<polygon fill="#FCEED1" points="49.675,160.803 62.737,145.456 62.828,145.349 69.721,137.25 69.567,137.118 62.674,145.217 
					62.582,145.325 49.521,160.672 49.429,160.779 44.215,166.906 44.369,167.038 49.584,160.911 				"/>
				<polygon fill="#FCEED1" points="48.13,159.488 61.192,144.141 61.283,144.034 68.176,135.935 68.021,135.803 61.128,143.902 
					61.037,144.01 47.975,159.357 47.884,159.464 42.669,165.591 42.824,165.723 48.039,159.595 				"/>
			</g>
		</g>
	</g>
	
		<rect x="29.518" y="126.267" transform="matrix(0.9968 -0.0802 0.0802 0.9968 -10.1924 3.8458)" fill="#EE5C51" width="26.527" height="5.09"/>
	
		<rect x="41.893" y="126.213" transform="matrix(0.9968 -0.0802 0.0802 0.9968 -11.0133 3.9658)" fill="#FACD25" width="3.943" height="25.756"/>
	
		<rect x="42.837" y="119.635" transform="matrix(-0.0802 -0.9968 0.9968 -0.0802 -84.6261 185.0844)" opacity="0.35" fill="#1285C6" width="0.492" height="23.905"/>
	<path fill="#FACD25" d="M46.932,120.59c-0.901-0.623-2.441,0.042-3.439,1.485c-0.311,0.451-0.532,0.924-0.662,1.381
		c-0.192-0.766-0.652-1.591-1.347-2.315c-1.475-1.535-3.447-2.033-4.406-1.112c-0.959,0.921-0.541,2.912,0.934,4.447
		c1.106,1.151,2.492,1.719,3.52,1.542c-0.505-0.206-1.07-0.596-1.585-1.132c-1.063-1.106-1.506-2.405-0.99-2.901
		c0.516-0.496,1.796-0.001,2.859,1.105c0.376,0.391,0.672,0.806,0.877,1.201c-0.011,0.324,0.033,0.623,0.133,0.88
		c0.083-0.442,0.306-0.963,0.654-1.467c0.719-1.04,1.695-1.612,2.181-1.276c0.486,0.336,0.296,1.451-0.423,2.491
		c-0.348,0.504-0.757,0.896-1.141,1.13c0.86,0.008,1.913-0.637,2.661-1.719C47.756,122.889,47.834,121.213,46.932,120.59z"/>
</g>
<path fill="#FDCD9D" d="M29.098,132.925c-0.632-0.437-1.375-0.761-2.253-0.924c-1.8-0.333-3.885-0.326-6.062-0.101
	c-0.795,0.082-1.601,0.193-2.411,0.328l0,0c-1.254,0.21-2.516,0.477-3.751,0.78c-5.385,1.321-10.261,3.325-11.782,4.266
	c-2.672,1.652-7.472,14.017,8.226,16.677c1.436-0.549,3.22-1.192,5.194-1.82c1.186-0.378,2.439-0.748,3.724-1.09
	c1.758-0.467,3.574-0.878,5.36-1.169c0.206-0.034,0.41-0.063,0.615-0.094l1.566-0.477C31.728,147.642,34.161,136.426,29.098,132.925
	z"/>
<path fill="#FDCD9D" d="M38.555,159.059c0.154-1.236,0.151-2.488-0.042-3.662c-0.467-2.846-2.045-5.227-5.218-5.762
	c-2.159-0.364-4.703-0.248-7.336,0.142l-0.593,0.18l-5.336,1.624l-3.721,1.132l-4.486,1.365c-0.263-0.038-0.506-0.085-0.758-0.128
	c-1.366,0.522-2.421,0.959-3.013,1.212c-2.908,1.241-8.009,14.554,9.405,16.816c0.147-0.231,0.297-0.455,0.448-0.661
	c0.843-1.149,1.728-1.897,2.351-1.956c0.866-0.082,2.741-0.234,5.114-0.308h0c0.653-0.02,1.345-0.034,2.064-0.039l6.587-1.975
	c1.423-0.55,2.652-2.096,3.488-4.054C38.02,161.787,38.383,160.435,38.555,159.059l-3.887,0.333l-6.082,0.52l-0.681,0.058v0
	l0.681-0.058l6.082-0.521L38.555,159.059z"/>
</svg>
